<svg xmlns="http://www.w3.org/2000/svg" viewBox="0 0 390.59 341.66"><defs><style>.cls-1{fill:#0074c8;}.cls-2{fill:#fff;}.cls-3{fill:#fd8204;}</style></defs><title>Recurso 7</title><g id="Capa_2" data-name="Capa 2"><g id="Capa_1-2" data-name="Capa 1"><circle class="cls-1" cx="219.76" cy="170.83" r="170.83"/><path class="cls-2" d="M317.74,88.38,123,86.93a25.52,25.52,0,0,0-25.69,25.3l-.79,106.25a25.53,25.53,0,0,0,25.31,25.69l57,.42-.17,22.5a13.55,13.55,0,0,0,13.42,13.62l53.61.4a13.54,13.54,0,0,0,13.62-13.42l.17-22.5,57,.43a25.54,25.54,0,0,0,25.69-25.31l.79-106.25A25.52,25.52,0,0,0,317.74,88.38ZM247.09,267.59a1.25,1.25,0,0,1-1.26,1.25l-53.6-.4a1.25,1.25,0,0,1-1.25-1.26l.17-22.5,56.11.42Zm82.09-47.38a12.44,12.44,0,0,1-12.51,12.32l-194.74-1.45a12.43,12.43,0,0,1-12.32-12.5l.79-106.25A12.43,12.43,0,0,1,122.91,100l194.74,1.45A12.43,12.43,0,0,1,330,114Z"/><path class="cls-3" d="M259.26,126.94a41.27,41.27,0,0,0-26.34,9.2l-58-.43a3.68,3.68,0,1,0-.05,7.36l51,.38a41.2,41.2,0,0,0-6,11.27,4.28,4.28,0,0,0-.95-.15l-44.13-.32a3.68,3.68,0,1,0,0,7.36l43.3.32a41.36,41.36,0,0,0-.24,11.21l-43.15-.32a3.68,3.68,0,0,0-.05,7.36l44.73.34a40.88,40.88,0,0,0,5,10.66l-49.83-.37a3.68,3.68,0,1,0-.05,7.36l44.81.33-17.89,17.63a6.45,6.45,0,0,0,4.48,11.05,6.37,6.37,0,0,0,4.58-1.85l23.92-23.57a41,41,0,0,0,24.33,8.14,41.48,41.48,0,1,0,.62-83Zm-.92,70.61a28.75,28.75,0,1,1,29-28.53A28.76,28.76,0,0,1,258.34,197.55Z"/><path class="cls-3" d="M81.26,268.84H41.32v-165H0V73.24l81.26-7.13Z"/></g></g></svg>