<svg xmlns="http://www.w3.org/2000/svg" viewBox="0 0 429.87 341.66"><defs><style>.cls-1{fill:#0074c8;}.cls-2{fill:#fd8204;}.cls-3{fill:#fff;}</style></defs><title>Recurso 8</title><g id="Capa_2" data-name="Capa 2"><g id="Capa_1-2" data-name="Capa 1"><circle class="cls-1" cx="259.04" cy="170.83" r="170.83"/><path class="cls-2" d="M196.92,184.23c.35.08.7.2,1.05.31a9.48,9.48,0,0,0,3.68.61,7.73,7.73,0,0,0,3.46-1.38c.26-.17.52-.33.78-.47,8.14-4.32,19-9.48,31-11,5.66-.73,12.08-2.66,13.17-10.87h18.16l.12.66c1.28,7.36,2.08,8.15,9.48,9.4l.1,0a113.71,113.71,0,0,1,34.6,12l.66.37a9.79,9.79,0,0,0,4,1.5l.36,0a6.41,6.41,0,0,0,4.83-2.4c1.25-1.68.57-4.44-.39-5.79a10.59,10.59,0,0,0-3.71-2.88A118.46,118.46,0,0,0,281.13,161l-.48-.08c-2-.32-2-.36-2.06-1.34l0-.11c-.28-2.77-.28-3.32,1.37-4.3,9.67-5.76,15.07-13.22,16.5-22.78.06-.2.36-.7,1.75-1.89a19.29,19.29,0,0,0,5.57-22.37,9.52,9.52,0,0,1-.5-5.08,44.91,44.91,0,0,0-44.49-54.82,45.27,45.27,0,0,0-43.9,55.48,6.78,6.78,0,0,1-.43,3.84c-3.69,8.61-1.51,17.59,5.7,23.44a4.38,4.38,0,0,1,1.39,1.61c1.8,9.68,7.41,17.32,16.67,22.7,1.34.78,1.35,1.15,1.17,3.27,0,.33-.05.66-.07,1-.06.94-.06,1-2.39,1.42a117.62,117.62,0,0,0-37.14,13.26,4.3,4.3,0,0,1-.48.23,4.75,4.75,0,0,0-2.57,2.06,16.76,16.76,0,0,0-1.22,3.4c-.11.38-.22.77-.34,1.16a2.45,2.45,0,0,0,1.76,3.12Zm95.86-82.84A42,42,0,0,1,273.1,89.13a12,12,0,0,0-4-2.55c-.52-.25-1-.47-1.45-.71a2.47,2.47,0,0,0-2.24-.08,2.45,2.45,0,0,0-1.37,1.78c-.1.56-.24,1.14-.4,1.76a14.82,14.82,0,0,0-.62,5.14,16.81,16.81,0,0,0,1,3.77,39.35,39.35,0,0,1-7.24-3.18,58.64,58.64,0,0,1-10.89-8.83c-1.31-1.33-3.34-3.08-5.93-3a6.68,6.68,0,0,0-4.83,2.66c-3.19,3.72-6.2,7.66-9.12,11.46l-.58.75c-2.79-13.25,3.67-25.36,12.18-32.07a35.49,35.49,0,0,1,42.58-.6C291.07,73.57,296.53,89.56,292.78,101.39Zm-60,32.07c-1-4.83-2.61-8.73-7.18-12a5.24,5.24,0,0,1-1.35-2l.29.18a2.52,2.52,0,0,0,2,.24,2.48,2.48,0,0,0,1.5-1.32c.22-.47.47-.94.72-1.41a15.21,15.21,0,0,0,1.66-4,31.25,31.25,0,0,1,9.09-16.62A52.05,52.05,0,0,0,260,109.1a60.13,60.13,0,0,0,9.52,2.19c2.52.38,5.36.61,7.08-1.29a4.54,4.54,0,0,0,1.13-2.69c3,1.37,5.92,2.68,8.89,4a23.27,23.27,0,0,0,3.89,1.22c2.57.64,4.35,2,4.76,3.56.36,1.39-.36,3-2,4.54-4.31,4-5.93,8.46-7.64,13.16l-.38,1c-2.35,6.39-7.91,11.65-15.25,14.43-8,3-16.76,2.61-23.54-1.06C240.21,144.78,234.23,140.66,232.75,133.46Z"/><path class="cls-3" d="M355.06,274.27a26.32,26.32,0,0,0-4.83-.18c-.56,0-1.09,0-1.67,0-1.12,0-2.27,0-2.89-.08-.07-.6-.07-1.67-.07-2.71V205.09c0-12-4.84-16.89-16.63-16.9-46.83,0-92.86,0-139.82,0a41.22,41.22,0,0,0-5.62.46c-5.38.73-9.08,4.16-10.42,9.64a29,29,0,0,0-.64,6.65c0,21.86-.07,44.46,0,67.06a5.39,5.39,0,0,1-.17,1.7,3.69,3.69,0,0,1-1.28,0,31.54,31.54,0,0,0-8.39.37,5.8,5.8,0,0,0-4.17,5.31c.2,2.7,3.61,4.31,4,4.48a5.27,5.27,0,0,0,2.21.43,11.63,11.63,0,0,0,1.22-.07c.27,0,.54,0,.81,0H273.83q38.43,0,76.88,0h.61a12.56,12.56,0,0,0,4.7-.59,5.72,5.72,0,0,0,3.47-5C359.39,276.39,356.8,274.55,355.06,274.27Zm-20.14-19.36v18.35h-152V245.71q0-20.47,0-40.94c0-5.53.45-6,6-6H329c5.61,0,6,.33,6,5.89Q334.93,229.79,334.92,254.91Z"/><path class="cls-3" d="M258.73,227.2a13.64,13.64,0,1,0,10.17,23,13.27,13.27,0,0,0,3.78-9.77A13.81,13.81,0,0,0,258.73,227.2Z"/><path class="cls-2" d="M138,268.84H3.87V242.62l61.9-70Q79.65,156.28,85.47,145t5.83-20.79q0-12.36-6.17-19.77T66.6,97q-13,0-20.18,9.47t-7.14,24H.3L0,129.66Q-.66,103,17.6,84.57t49-18.46q30.74,0,47.76,15.71t17,42.21a59.4,59.4,0,0,1-9.54,32.81q-9.54,14.82-32.87,41L56,237.41l.27.68H138Z"/></g></g></svg>