<svg xmlns="http://www.w3.org/2000/svg" viewBox="0 0 437.74 341.66"><defs><style>.cls-1{fill:#0074c8;}.cls-2{fill:#fff;}.cls-3{fill:#fd8204;}</style></defs><title>Recurso 9</title><g id="Capa_2" data-name="Capa 2"><g id="Capa_1-2" data-name="Capa 1"><circle class="cls-1" cx="266.91" cy="170.83" r="170.83"/><g id="XU4u8X.tif"><path class="cls-2" d="M267,286.65l-47.66,0c-14.67,0-22.42-7.86-22.43-22.71V172.14q0-13,0-26c.05-21.42.1-43.58-.17-65.34-.09-6.85,2-12.62,6.06-16.69s9.78-6.24,16.53-6.17c21.63.14,43.63.12,64.91.1q15.18,0,30.35,0c14.69,0,22.46,7.85,22.46,22.69q0,91.59,0,183.18c0,14.86-7.76,22.71-22.45,22.72ZM219.14,70.22c-2.35,0-5.54.45-7.63,2.55-1.7,1.71-2.54,4.36-2.5,7.89.28,21.85.23,44.05.18,65.52q0,13,0,26v28.68q0,31.55,0,63.1c0,8.1,2.28,10.44,10.17,10.45,31.41,0,63.47,0,95.29,0,7.8,0,10.19-2.45,10.19-10.46q0-91.59,0-183.18c0-8-2.39-10.42-10.21-10.43l-30.33,0c-21.3,0-43.33,0-65-.1Z"/></g><path class="cls-3" d="M303.34,132H234.06a7.4,7.4,0,0,0-7.41,7.41v26.76a7.41,7.41,0,0,0,7.41,7.41h21.82l12.69,12.69,12.68-12.69h22.09a7.42,7.42,0,0,0,7.42-7.41V139.37A7.41,7.41,0,0,0,303.34,132Z"/><path class="cls-2" d="M255.91,253.28a11,11,0,0,0,11,11.22,11.14,11.14,0,1,0-11-11.22Z"/><path class="cls-3" d="M67,151.35q14.26,0,21.2-7.42t6.93-20.86q0-11.25-7.27-18.67T67.55,97q-11,0-18.46,6.73a22,22,0,0,0-7.48,17.15H2.9l-.27-.82Q1.81,96.58,20.75,81.34t46.8-15.23q31,0,49.28,14.61t18.26,41.94a43.42,43.42,0,0,1-7.9,25.19,54,54,0,0,1-21.61,18.05q15.65,5.9,24.15,17.91t8.51,29q0,27.45-19.83,43.17T67.55,271.72q-27.31,0-47.76-14.82T0,215.31l.28-.82h39a25.18,25.18,0,0,0,7.89,18.87Q55.06,241,67.55,241q13.73,0,22.24-8.1a27,27,0,0,0,8.51-20.45q0-15.78-8-23.41T67,181.41H44.91V151.35Z"/></g></g></svg>