<svg xmlns="http://www.w3.org/2000/svg" viewBox="0 0 103.68 21.23"><defs><style>.cls-1{fill:#e2100b;}.cls-2{fill:#fff;}.cls-3{fill:#234696;}</style></defs><title>Recurso 1</title><g id="Capa_2" data-name="Capa 2"><g id="Capa_1-2" data-name="Capa 1"><rect class="cls-1" width="30.89" height="20.9"/><path class="cls-2" d="M29.21,5.32l-.46-.12-.48-.11-.7.11a4.58,4.58,0,0,1-.54,0A9,9,0,0,0,24.42,5,14.29,14.29,0,0,0,22.27,5a.6.6,0,0,1,.26.14.61.61,0,0,1,.18.24,2.45,2.45,0,0,1,.12.38l0,.25a8.88,8.88,0,0,0,1.61-.09h.28a3.84,3.84,0,0,0,1.62-.07,4.87,4.87,0,0,1,1-.11s.45.09.51.09l.36,0a.68.68,0,0,0,.24,0c.2-.06,0-.14,0-.14l-.3-.06c-.12,0,.06-.12.06-.12s.54,0,.86,0h0c.11,0,.17-.08.1-.14m-8.34-1a.79.79,0,0,1,0-.35,1.62,1.62,0,0,0,.29,0,.27.27,0,0,0,.13-.1,2.27,2.27,0,0,0,0-.24l.06-.11a0,0,0,0,0,0,0c.08,0,0-.11,0-.12a.54.54,0,0,1,0-.15l.11,0a.1.1,0,0,0,.05,0s0,0,0-.08-.1-.19-.1-.19l-.08-.18a3.19,3.19,0,0,0,0-.46A.94.94,0,0,0,21.17,2a1.17,1.17,0,0,0-.31-.3,1.36,1.36,0,0,0-.88-.1.87.87,0,0,0-.78.78,1.58,1.58,0,0,0,.41,1.22,2.39,2.39,0,0,1,0,.8,1,1,0,0,1-.41.27,2.94,2.94,0,0,0-.83.37s-.73.09-.68,1.22c0,0,0,.15,0,.34l0,.17a12,12,0,0,0,0,1.95,9.48,9.48,0,0,0,.05,2.67,5.12,5.12,0,0,1,0,.54l-.14.71v.21a1.42,1.42,0,0,0,.35.72c.05.07.2,0,.12-.1a1.37,1.37,0,0,1-.14-.85s.11-.21.13,0a2.66,2.66,0,0,0,0,.3s.07.23.14,0a.74.74,0,0,0,0-.25,3.44,3.44,0,0,0,.05-.36c0-.09-.06-.53-.06-.53a5.14,5.14,0,0,1,.14-1,3.94,3.94,0,0,0,.14-1.65c0-.05,0-.24,0-.28a8.4,8.4,0,0,0,.17-1.86c.07-.29.15,0,.15,0l0,2.17-.31,1.71a9.81,9.81,0,0,0-.08,1.61l.05.91.08.56s.19.81.4,1.44c0,.21,0,.39.08.66a3.16,3.16,0,0,1,0,.41,7.11,7.11,0,0,0,.37,2.73.89.89,0,0,1,0,.36.57.57,0,0,0,0,.22.68.68,0,0,1,0,.33,5.31,5.31,0,0,0-.27.53c-.14.27,0,.34,0,.34h3.26s.09-.18-.09-.19-.17-.09-.27-.13a6.57,6.57,0,0,0-.61-.33,1.8,1.8,0,0,1-.34-.34,1.61,1.61,0,0,1,0-.79,9.64,9.64,0,0,0,.38-2.73,3.31,3.31,0,0,1,0-.42,4,4,0,0,0,.07-.65c.21-.63.4-1.44.4-1.44l.08-.56.06-.91A8.75,8.75,0,0,0,22,10.8c-.1-.47-.33-1.71-.33-1.71l.11-2.23a.38.38,0,0,1,.09-.08l.88-.8c0-.92-.65-1-.65-1a3.14,3.14,0,0,0-.83-.37.9.9,0,0,1-.39-.27m-.53,11.49,0,.27a7.51,7.51,0,0,0-.11,1c0,.44,0,1.69.08,2.06a1.52,1.52,0,0,1,0,.42c0,.12-.05.56-.12.59s-.13-.4-.12-.51a.76.76,0,0,0,0-.27c-.05-.11.08-1.84.08-2.29a6.53,6.53,0,0,0-.12-1v-.65a2.94,2.94,0,0,1,0-.42c0-.07,0-.23,0-.23.09-.62.08-2.69.09-2.78a.07.07,0,0,1,0-.06h0s0,0,0,.06,0,2.47.08,2.78v.25c0,.09,0,.29,0,.4s0,.38,0,.38m2.12-2.41c-.09.11.06.16.11.09h0a1.45,1.45,0,0,0,.35-.72V12.6l-.14-.71a5.12,5.12,0,0,1,0-.54,9.06,9.06,0,0,0,.05-2.67c0-.65,0-1-.07-2l0-.55-.83.75A10.72,10.72,0,0,0,22,8.77s0,.23,0,.28a3.94,3.94,0,0,0,.14,1.65,5.14,5.14,0,0,1,.14,1s-.06.42-.06.53a3.07,3.07,0,0,0,.05.36.74.74,0,0,0,0,.25c.08.19.15,0,.15,0s0-.2,0-.3.12.05.12.05a1.4,1.4,0,0,1-.14.86Zm.47-6a5.18,5.18,0,0,0,1,.81s.16.15.2.2a3.87,3.87,0,0,0,1.24,1.07,4.77,4.77,0,0,1,.81.62s.27.36.33.42.28.22.28.22A.77.77,0,0,0,27,11c.19.09.08-.12.08-.12s-.11-.14-.18-.25,0-.11.12-.05.61.55.61.55.1,0,.09-.09a1.82,1.82,0,0,0-.23-.39l-.21-.3-.59-.4a4.81,4.81,0,0,1-.39-.38A8.86,8.86,0,0,0,24.43,7.6a8.74,8.74,0,0,0-1.36-1.38L22.86,6Z"/><path class="cls-3" d="M103.68,20.9V12.72h-2.63v.92a3.21,3.21,0,0,0-2.35-1.21,4.16,4.16,0,0,0-4,4.4,4.07,4.07,0,0,0,4,4.35A2.88,2.88,0,0,0,101,20.11h0v.79Zm-2.37-4.16a1.84,1.84,0,1,1-1.83-1.87,1.84,1.84,0,0,1,1.83,1.87m2.33-6.64a1.41,1.41,0,1,0-1.41,1.4,1.41,1.41,0,0,0,1.41-1.4m-1.85,1.11h.1v-.94H102l.64.94h0a1.13,1.13,0,0,1-.45.09,1,1,0,0,1-.44-.09M102,10h-.09v-.8H102c.27,0,.59,0,.59.4s-.3.4-.58.4m-.36,1.09a1.2,1.2,0,0,1,0-2.07Zm1.82-1a1.23,1.23,0,0,1-.54,1l-.61-.85a.6.6,0,0,0,.52-.62.63.63,0,0,0-.28-.54A1.15,1.15,0,0,0,102,9h-.2a1.29,1.29,0,0,1,.48-.1,1.21,1.21,0,0,1,1.21,1.21M91.37,20.9H94V8.17H91.37v5.45h0A3.05,3.05,0,0,0,89,12.46a4.22,4.22,0,0,0-4.11,4.36,4.23,4.23,0,0,0,4.14,4.41,2.85,2.85,0,0,0,2.27-1.14h0Zm.25-4a1.83,1.83,0,1,1-1.83-1.86,1.85,1.85,0,0,1,1.83,1.86m-10.07,4h2.64V12.73H81.55v.9a3.15,3.15,0,0,0-2.35-1.16,4.12,4.12,0,0,0-4,4.36,4.07,4.07,0,0,0,4,4.34,2.91,2.91,0,0,0,2.29-1.06h0Zm.5-4.12a1.83,1.83,0,1,1-1.83-1.86,1.85,1.85,0,0,1,1.83,1.86m.84-7.69c0-.11.11-.14.2-.14a1.25,1.25,0,0,1,.67.25l.35-.83A2.4,2.4,0,0,0,83,8.1c-.64,0-1.38.3-1.38,1.06,0,.57.44.76.92.83.12,0,.29,0,.29.19s-.11.16-.21.16a1.66,1.66,0,0,1-.74-.27L81.75,10l-.36.91a3.35,3.35,0,0,0,1.35.33c.67,0,1.44-.32,1.44-1.1,0-.61-.42-.79-.94-.88-.2,0-.35,0-.35-.19m-4,2.11h1.41v-3H78.93l0,.36h0a1,1,0,0,0-.87-.43,1.45,1.45,0,0,0-1.28,1.59c0,.73.44,1.56,1.25,1.56a1.15,1.15,0,0,0,.9-.46h0Zm0-1.54c0,.23-.11.46-.38.46s-.37-.21-.37-.45a.38.38,0,0,1,.37-.41.37.37,0,0,1,.38.4M75.6,7.24a.8.8,0,0,0-1.59,0,.8.8,0,0,0,1.59,0m-1.52,3.95h1.44v-3H74.08Zm.22,4.41c0-1.87-.77-3.2-2.92-3.2a2.92,2.92,0,0,0-2.46,1.35A2.66,2.66,0,0,0,66.5,12.4a2.51,2.51,0,0,0-2.06,1h0v-.74H61.74v8.2H64.4V16.74c0-.91-.07-2.43,1.27-2.43s1.15,1.45,1.15,2.29v4.29h2.65V16.74c0-.89-.26-2.43,1-2.43s1.13,1.29,1.13,2.13V20.9H74.3ZM71.75,9.68a.43.43,0,0,1,.45-.46.83.83,0,0,1,.53.25V8.25a3.09,3.09,0,0,0-.9-.15A1.53,1.53,0,0,0,70.3,9.69a1.49,1.49,0,0,0,1.64,1.56,2.25,2.25,0,0,0,.73-.14l.06-1.24a1,1,0,0,1-.56.24.43.43,0,0,1-.42-.43m-4,1.51h1.41v-3H67.72l0,.36h0a1,1,0,0,0-.86-.43,1.45,1.45,0,0,0-1.29,1.59c0,.73.45,1.56,1.25,1.56a1.13,1.13,0,0,0,.9-.46h0Zm0-1.54c0,.23-.11.46-.39.46S67,9.9,67,9.66a.38.38,0,1,1,.76,0M63,11.19h1.39V9.31c0-.65-.31-1.21-1-1.21a.88.88,0,0,0-.89.64h0a.84.84,0,0,0-.85-.64.9.9,0,0,0-.86.6h0l0-.53H59.36v3h1.4V9.69c0-.18,0-.4.2-.4s.22.22.22.4v1.5h1.39V9.69c0-.18,0-.4.21-.4s.21.22.21.4ZM57.85,9.42a.77.77,0,0,1,.44.17V8.1a1,1,0,0,0-1,.47h0l0-.4H55.85v3h1.44V10c0-.38.19-.61.56-.61M56.8,19c-1.22,0-1.37-.91-1.37-1.89V12.71H52.76v4.84c0,2.5,1.51,3.64,4,3.64s4.07-1.14,4.07-3.64V12.71H58.18v4.44c0,1-.15,1.89-1.38,1.89m-3.63-7.85h1.41v-3H53.17l0,.36h0a1,1,0,0,0-.86-.43A1.45,1.45,0,0,0,51,9.69c0,.73.44,1.56,1.25,1.56a1.15,1.15,0,0,0,.9-.46h0Zm0-1.54c0,.23-.11.46-.38.46s-.37-.21-.37-.45a.38.38,0,0,1,.37-.41.37.37,0,0,1,.38.4M49.87,7.71a.73.73,0,0,1,.2,0V6.6a4.5,4.5,0,0,0-.63-.07c-.89,0-1.28.49-1.28,1.37v.32l-.39-.05V9.34l.39,0v1.89H49.6V9.3l.46,0V8.17l-.49.06V8.12c0-.2.06-.41.3-.41M48.7,12.45a2.73,2.73,0,0,0-2.21,1.1h0V8.17H43.79V20.9h2.67v-4c0-1,0-2.13,1.44-2.13s1.31.8,1.31,1.83V20.9h2.66v-5c0-2-.9-3.46-3.17-3.46M40.06,20.9h2.63l0-8.19H40.06v.93a3.2,3.2,0,0,0-2.33-1.22,4.18,4.18,0,0,0-4,4.41,4.07,4.07,0,0,0,4,4.35A2.9,2.9,0,0,0,40,20.11h0Zm.25-4A1.83,1.83,0,1,1,38.48,15a1.84,1.84,0,0,1,1.83,1.87"/></g></g></svg>