<svg xmlns="http://www.w3.org/2000/svg" viewBox="0 0 107.95 16.42"><defs><style>.cls-1{fill:#009a3c;}.cls-2{fill:#ffd300;}.cls-3{fill:#fff;}</style></defs><title>Recurso 1</title><g id="Capa_2" data-name="Capa 2"><g id="Capa_1-2" data-name="Capa 1"><polygon class="cls-1" points="73.23 16.4 0 16.4 0 0 89.63 0 73.23 16.4"/><polygon class="cls-2" points="73.23 16.4 80.38 16.4 96.99 0 89.63 0 73.23 16.4"/><polygon class="cls-1" points="102.48 5.48 107.95 5.48 107.95 10.95 102.48 10.95 102.48 16.42 97.01 16.42 97.01 10.95 91.54 10.95 91.54 5.48 97.01 5.48 97.01 0.01 102.48 0.01 102.48 5.48"/><path class="cls-3" d="M19.31,12.61h2.25V9.22a1.67,1.67,0,0,1,.11-.66A1.42,1.42,0,0,1,23,7.62h.48V5.88a1.88,1.88,0,0,0-.48,0,1.94,1.94,0,0,0-1.65,1.09H21.3l-.12-1H19.24c0,.63.07,1.35.07,2Z"/><path class="cls-3" d="M50.65,9.91A4.28,4.28,0,0,0,50.72,9c0-2-1-3.15-2.85-3.15a3.29,3.29,0,0,0-3.35,3.57c0,2.08,1.26,3.35,3.55,3.35a4.64,4.64,0,0,0,2.3-.61l.08-1.4a3.9,3.9,0,0,1-2,.58c-1,0-1.75-.38-1.77-1.42Zm-4-1.24c0-.67.33-1.53,1.05-1.53s.94.67.94,1.53Z"/><path class="cls-3" d="M60,3.21V6.52h0a1.53,1.53,0,0,0-1.41-.67c-1.4,0-2.69,1.14-2.69,3.44,0,1.86.83,3.43,2.61,3.43a2.15,2.15,0,0,0,1.73-.86h.05l.12.75H62.3c0-.61-.07-1.35-.07-2V3.21Zm0,7.05a1,1,0,0,1-.06.42.8.8,0,0,1-.79.58c-.62,0-1.05-.66-1.05-1.92,0-1.08.29-2,1.08-2a.84.84,0,0,1,.79.78,1.71,1.71,0,0,1,0,.39Z"/><path class="cls-3" d="M26.06,10v0Zm1.65.08v0ZM23.93,5.9h2.13v4.56a.83.83,0,0,0,1.65,0V6.81l0-.92h2.13v4.28a2.68,2.68,0,0,1-3,2.63,2.68,2.68,0,0,1-3-2.63s0-4.27,0-4.27"/><path class="cls-3" d="M69.11,9.91A4.47,4.47,0,0,0,69.18,9c0-2-1-3.15-2.84-3.15A3.29,3.29,0,0,0,63,9.4c0,2.08,1.26,3.35,3.55,3.35a4.64,4.64,0,0,0,2.3-.61l.08-1.4a3.9,3.9,0,0,1-2,.58c-1,0-1.75-.38-1.77-1.41Zm-4-1.26c0-.66.33-1.52,1-1.52s.94.67.94,1.52Z"/><polygon class="cls-3" points="30.52 5.94 30.52 7.39 32.74 7.39 30.01 12.59 35.64 12.58 35.65 11.14 33.03 11.13 35.97 5.93 30.52 5.94"/><polygon class="cls-3" points="42.57 3.46 41.2 9.82 39.79 3.46 37.31 3.46 39.88 12.61 42.4 12.61 45.04 3.46 42.57 3.46"/><path class="cls-3" d="M51.53,12.61h2.25V9.22a1.91,1.91,0,0,1,.1-.66,1.43,1.43,0,0,1,1.36-.94h.48V5.88a1.88,1.88,0,0,0-.48,0,1.93,1.93,0,0,0-1.65,1.09h-.07L53.4,6H51.46c0,.63.07,1.35.07,2Z"/><path class="cls-3" d="M18.52,12.65a4.2,4.2,0,0,1-1.23.14c-3,0-4.4-2-4.4-4.75,0-3.62,2.43-5,4.69-5a4.83,4.83,0,0,1,.94.09l-.06,2.08A2.43,2.43,0,0,0,17.55,5c-1.16,0-2.2.82-2.2,3s1,2.77,2.21,2.82a1.63,1.63,0,0,0,.9-.24Z"/></g></g></svg>