<svg xmlns="http://www.w3.org/2000/svg" viewBox="0 0 780.69 291.05"><defs><style>.cls-1{fill:#570f8b;}.cls-2{fill:#fff;}</style></defs><title>Recurso 1</title><g id="Capa_2" data-name="Capa 2"><g id="Capa_1-2" data-name="Capa 1"><rect class="cls-1" width="780.69" height="291.05"/><path class="cls-2" d="M318.57,90.33A25.17,25.17,0,0,0,311,97.69q-3.42,4.86-3.43,13.45l0,93.2h19V139.07h16.73V120.4H326.53V114a8.14,8.14,0,0,1,1.44-4.28,10.33,10.33,0,0,1,3.18-3,10.82,10.82,0,0,1,5.9-1.31h15V86.7h-22.3a26.79,26.79,0,0,0-11.16,3.63"/><path class="cls-2" d="M212.07,150.69a43.08,43.08,0,0,0-3.14-11.21,38.1,38.1,0,0,0-5-8.34,31.89,31.89,0,0,0-6.09-5.9,41.48,41.48,0,0,0-6.51-3.85,44.83,44.83,0,0,0-16.53-3.75,41.73,41.73,0,0,0-19.11,4.91,38.25,38.25,0,0,0-7,5.08,30,30,0,0,0-6.1,7.78,44.21,44.21,0,0,0-4.26,11,61.35,61.35,0,0,0-1.61,14.88,61.26,61.26,0,0,0,1.61,14.87,43.36,43.36,0,0,0,4.26,11,29.09,29.09,0,0,0,6.1,7.59,40.78,40.78,0,0,0,7,5,42.44,42.44,0,0,0,34.68,1.63,44.33,44.33,0,0,0,6.26-3.36,30.51,30.51,0,0,0,6-5.14,39.74,39.74,0,0,0,5.14-7.38,38.49,38.49,0,0,0,3.61-10H190.56a20.39,20.39,0,0,1-5.46,7.55q-3.69,3.27-10.27,3.27c-4.39,0-7.8-1.09-10.27-3.27a20.39,20.39,0,0,1-5.46-7.55,25.92,25.92,0,0,1-1.61-5.63c-.32-1.9-.59-3.8-.8-5.65h56.18v-2.93c0-1.95-.09-3.82-.24-5.57s-.35-3.44-.56-5.06m-54.26,0a25.83,25.83,0,0,1,1.93-5.24,18.15,18.15,0,0,1,3.35-4.73,15.52,15.52,0,0,1,5-3.37,19.08,19.08,0,0,1,13.48,0,15.12,15.12,0,0,1,5,3.37,16.63,16.63,0,0,1,3.29,4.73,38.75,38.75,0,0,1,2,5.24Z"/><path class="cls-2" d="M603.23,135.73a30.59,30.59,0,0,0-5.76-7.92,35.11,35.11,0,0,0-42.79-5.16,34.28,34.28,0,0,0-6.58,5.16c-.56.56-1.09,1.16-1.63,1.78-.55-.62-1.08-1.22-1.66-1.78a36,36,0,0,0-6.66-5.16,35.07,35.07,0,0,0-36.13,0,34.85,34.85,0,0,0-6.57,5.16,33.14,33.14,0,0,0-5.78,7.92A45.46,45.46,0,0,0,485.58,147,66.63,66.63,0,0,0,484,162.16v42.18h19.61V162.16a65.94,65.94,0,0,1,.41-7.49,19.68,19.68,0,0,1,2-7,13.25,13.25,0,0,1,4.9-5.23q3.29-2.1,9.24-2.1c4,0,7,.7,9.22,2.1a13,13,0,0,1,4.9,5.23,20.32,20.32,0,0,1,2,7,68.38,68.38,0,0,1,.42,7.49v42.18h19.57V162.16a68.33,68.33,0,0,1,.41-7.49,20.31,20.31,0,0,1,2-7,13.25,13.25,0,0,1,4.9-5.23c2.19-1.4,5.28-2.1,9.23-2.1s7,.7,9.23,2.1a13.28,13.28,0,0,1,4.91,5.23,20.54,20.54,0,0,1,2,7,73.58,73.58,0,0,1,.39,7.49v42.18h19.58V162.16a63.73,63.73,0,0,0-1.6-15.17,49.85,49.85,0,0,0-4.1-11.26"/><path class="cls-2" d="M127.92,138.94a37,37,0,0,1,14.93-21.3H126.58c-25.95,0-39.27,13.92-39.88,42v44.74h19.79V159.25c0-12.59,5.43-19,16.28-19h4.69c.14-.44.31-.87.46-1.31"/><path class="cls-2" d="M476.2,138.94a37,37,0,0,1,14.61-21.3H474.89c-25.37,0-38.44,13.92-39,42v44.74h19.35V159.25c0-12.59,5.3-19,15.91-19h4.6c.11-.44.29-.87.44-1.31"/><path class="cls-2" d="M407.48,117.72v3.55c-.42-.22-.84-.4-1.28-.6a43.78,43.78,0,0,0-17.19-3,41.68,41.68,0,0,0-19.09,4.91,37.58,37.58,0,0,0-7,5.08,30.45,30.45,0,0,0-6.12,7.78,43.45,43.45,0,0,0-4.25,11A61.89,61.89,0,0,0,351,161.31a64.82,64.82,0,0,0,1.51,14.88,45.26,45.26,0,0,0,4,11,30.54,30.54,0,0,0,5.61,7.59,34.85,34.85,0,0,0,6.5,5,36.07,36.07,0,0,0,17.66,4.57,32.47,32.47,0,0,0,9.63-2.13,30.31,30.31,0,0,0,8.19-5.25,19.77,19.77,0,0,0,3.37-3.78v11.16h19.1V117.72Zm-.64,51.44a24.26,24.26,0,0,1-2.65,7.93,17.36,17.36,0,0,1-5.61,6.15q-3.61,2.43-9.57,2.43c-4,0-7.13-.81-9.54-2.43a16.8,16.8,0,0,1-5.54-6.15,24.86,24.86,0,0,1-2.57-7.93,48.34,48.34,0,0,1,0-15.68,25,25,0,0,1,2.57-8,17,17,0,0,1,5.54-6.13c2.41-1.63,5.58-2.44,9.54-2.44,4.18,0,7.5.72,10,2.12a14,14,0,0,1,5.52,5.66,22.66,22.66,0,0,1,2.4,7.85,68.45,68.45,0,0,1,.57,8.73,52.4,52.4,0,0,1-.64,7.85"/><path class="cls-2" d="M674.87,117.72v3.55c-.41-.22-.83-.4-1.26-.6a43.81,43.81,0,0,0-17.19-3,41.69,41.69,0,0,0-19.1,4.91,38.71,38.71,0,0,0-7,5.08,30.57,30.57,0,0,0-6.08,7.78,43.83,43.83,0,0,0-4.27,11,61.35,61.35,0,0,0-1.6,14.87,64.74,64.74,0,0,0,1.53,14.88,43.66,43.66,0,0,0,4,11,30.54,30.54,0,0,0,5.61,7.59,34.63,34.63,0,0,0,6.52,5,36,36,0,0,0,17.63,4.57,32.47,32.47,0,0,0,9.64-2.13,30.2,30.2,0,0,0,8.2-5.25,19,19,0,0,0,3.35-3.78v11.16H694V117.72Zm-.63,51.44a24.46,24.46,0,0,1-2.63,7.93,17.77,17.77,0,0,1-5.62,6.15q-3.63,2.43-9.57,2.43t-9.56-2.43a16.78,16.78,0,0,1-5.53-6.15,25.35,25.35,0,0,1-2.56-7.93,48.34,48.34,0,0,1,0-15.68,25.44,25.44,0,0,1,2.56-8,17,17,0,0,1,5.53-6.13q3.63-2.44,9.56-2.44c4.18,0,7.5.72,10,2.12a14,14,0,0,1,5.52,5.66,22.68,22.68,0,0,1,2.42,7.85,68.44,68.44,0,0,1,.55,8.73,52.31,52.31,0,0,1-.63,7.85"/><path class="cls-2" d="M397.88,97.14h-5.16v8.3h-3.63V88.72a1.94,1.94,0,0,1,1.84-2h11.26V90h-9.47v4h7.1v1.23a1.94,1.94,0,0,1-1.94,1.92"/><path class="cls-2" d="M426.87,86.75l6.51,18.66h-3.92l-1.2-3.82h-7l-1.18,3.82h-4L422.13,88a1.68,1.68,0,0,1,1.76-1.23Zm-4.64,11.7h5l-2.49-8Z"/><path class="cls-2" d="M461.39,96.49a3.22,3.22,0,0,1,1.73,1.3,8.13,8.13,0,0,1,.56,2.76l.15,3.66a1.57,1.57,0,0,0,.58,1.25h-4.07a3.1,3.1,0,0,1-.29-1.14,23.14,23.14,0,0,1-.15-3.14c-.15-2.27-.53-3-2.75-3h-3.92v7.27h-3.7V88.75a1.94,1.94,0,0,1,1.86-2h6.88c3.75,0,5.83,1.47,5.83,5.33,0,2.37-1,3.91-2.71,4.41M457.81,90h-4.58v4.91h4.36c1.78,0,2.75-.65,2.75-2.45S459.46,90,457.81,90"/><path class="cls-2" d="M484.06,86.75h3.6L491.31,101l3.54-14.24h5.52v18.71h-3.49V90.36l-3.71,15.1H489.4l-3.71-15.1v15.1h-3.48V88.75a1.94,1.94,0,0,1,1.85-2"/><path class="cls-2" d="M528,86.75l6.48,18.71h-3.9l-1.19-3.84h-7l-1.19,3.84h-4L523.26,88A1.64,1.64,0,0,1,525,86.75Zm-4.65,11.71h5l-2.5-7.95Z"/><path class="cls-2" d="M558.78,105.47c-5.56,0-8.34-3.7-8.34-9.37,0-5.84,2.94-9.37,8.66-9.37a8.14,8.14,0,0,1,5.37,1.67,6.79,6.79,0,0,1,2.18,4.68h-2.23A1.77,1.77,0,0,1,562.69,92a3.58,3.58,0,0,0-3.59-2c-3.43,0-5,2.43-5,6.07s1.47,6.09,4.86,6.09a3.79,3.79,0,0,0,4-3.31h3.61c-.35,4.2-3.28,6.59-7.87,6.59"/><path class="cls-2" d="M585.75,88.75c0-1.3.62-2,1.86-2h1.86v18.69h-3.72Z"/><path class="cls-2" d="M616.42,86.75l6.5,18.71H619l-1.21-3.84h-7l-1.2,3.84h-4l6-17.48a1.66,1.66,0,0,1,1.75-1.23Zm-4.64,11.71h5l-2.49-7.95Z"/><path class="cls-2" d="M651.27,100.13c0-.87-.54-1.45-1.65-1.77s-2.29-.63-3.6-1c-3.55-.93-5.3-2.56-5.3-5,.08-3.81,2.34-5.67,6.82-5.65,4.25,0,6.48,1.86,6.68,5.63h-2.07a1.74,1.74,0,0,1-1.65-1.06,3.45,3.45,0,0,0-3.27-1.57c-1.93,0-2.89.76-3,2.15,0,1.13,1.14,2,3.53,2.5a44.51,44.51,0,0,1,4.3,1.27,4,4,0,0,1,2.9,4.46c-.24,3.58-2.61,5.34-7.2,5.34-4.82,0-7.23-2-7.33-6h3.59c.13,1.92,1.35,2.89,3.74,2.89s3.51-.77,3.48-2.28"/><path class="cls-2" d="M278.69,129.41a21.93,21.93,0,0,0-3.35-3.86,29.13,29.13,0,0,0-17.67-7.93,35.76,35.76,0,0,0-17.52,4.93,31.52,31.52,0,0,0-12,12.83,45.81,45.81,0,0,0-4,11,64.47,64.47,0,0,0-1.52,14.9,61.33,61.33,0,0,0,1.6,14.88,42.63,42.63,0,0,0,4.21,11,29.37,29.37,0,0,0,6.05,7.59,36.35,36.35,0,0,0,25.88,9.58A40.39,40.39,0,0,0,279,199.77a38.14,38.14,0,0,0,6.84-5,30.13,30.13,0,0,0,6-7.68,45.31,45.31,0,0,0,4.22-11,62.7,62.7,0,0,0,1.59-14.89l0-74.43H278.68Zm-.63,39.75a23.66,23.66,0,0,1-2.64,7.92,17.21,17.21,0,0,1-5.56,6.14c-2.4,1.64-5.56,2.45-9.49,2.45s-7.08-.81-9.48-2.45a16.59,16.59,0,0,1-5.5-6.14,25.44,25.44,0,0,1-2.54-7.92,48.4,48.4,0,0,1,0-15.69,25.62,25.62,0,0,1,2.54-7.95,17,17,0,0,1,5.5-6.14c2.4-1.64,5.56-2.45,9.48-2.45s7.09.81,9.49,2.45a17.63,17.63,0,0,1,5.56,6.14,23.82,23.82,0,0,1,2.64,7.95,49.16,49.16,0,0,1,0,15.69"/></g></g></svg>