<svg xmlns="http://www.w3.org/2000/svg" viewBox="0 0 44.15 42.34"><defs><style>.cls-1{fill:#007ec2;}.cls-2,.cls-3{fill:#fff;}.cls-2{fill-rule:evenodd;}.cls-4{fill:#c491c0;}.cls-5{fill:#ffd800;}.cls-6{fill:#b3cb06;}.cls-7{fill:#00ace9;}.cls-8{fill:#f19200;}.cls-9{fill:#e30522;}.cls-10{fill:#4c94cf;}</style></defs><title>Recurso 1</title><g id="Capa_2" data-name="Capa 2"><g id="Capa_1-2" data-name="Capa 1"><circle class="cls-1" cx="21.17" cy="21.17" r="21.12"/><path class="cls-1" d="M21.17,42.34A21.17,21.17,0,0,1,6.2,6.2,21.17,21.17,0,0,1,36.14,36.14,21,21,0,0,1,21.17,42.34ZM21.17.1A21.07,21.07,0,1,0,42.24,21.17,21.09,21.09,0,0,0,21.17.1Z"/><path class="cls-2" d="M20.08,16.39H9.45a2.81,2.81,0,0,0-3,2.72v.67c0,.85.6,2.49,3,2.49h7.9c1.29,0,1.29,1.5,0,1.5H6.46V26H17.61c2.29,0,2.91-1.31,2.91-2.55,0-.78,0-.19,0-.94,0-1-.6-2.43-2.9-2.43H9.77c-1.41,0-1.43-1.49,0-1.49H20.09Z"/><path class="cls-3" d="M17.61,26H6.42V23.73H17.35c.64,0,.93-.37.93-.71s-.29-.71-.93-.71H9.45c-2.39,0-3-1.66-3-2.53v-.67a2.85,2.85,0,0,1,3-2.76H20.12v2.26H9.77c-.71,0-1,.37-1,.71s.32.7,1,.7H17.6c2.73,0,2.94,1.89,2.94,2.47,0,.37,0,.41,0,.45s0,.09,0,.49C20.56,24.39,20.17,26,17.61,26ZM6.5,25.94H17.61c2.5,0,2.87-1.58,2.87-2.51a3.12,3.12,0,0,0,0-.48c0-.05,0-.09,0-.46,0-.56-.2-2.39-2.86-2.39H9.77c-.76,0-1.1-.4-1.1-.78s.34-.79,1.1-.79H20.05v-2.1H9.45a2.77,2.77,0,0,0-2.94,2.68v.67c0,.85.62,2.45,2.94,2.45h7.9c.69,0,1,.41,1,.79s-.32.79-1,.79H6.5Z"/><path class="cls-2" d="M23.54,18.57v5.2H31.3c1.53,0,2-.82,2-1.9V20.46c0-1.08-.43-1.89-2-1.89Zm-2.53-6,2.52,0v3.73h7.79c3.81,0,4.29,2.68,4.29,3.87v2.09c0,1.44-.46,3.69-4.31,3.69H21Z"/><path class="cls-3" d="M31.3,26.05H21V12.58l2.6,0v3.73h7.75c4,0,4.33,3,4.33,3.91v2.09C35.65,24.8,34.19,26.05,31.3,26.05ZM21.05,26H31.3c2.83,0,4.27-1.23,4.27-3.65V20.24c0-.9-.3-3.83-4.25-3.83H23.49V12.68l-2.44,0ZM31.3,23.81H23.5V18.53h7.8c1.35,0,2,.63,2,1.93v1.41C33.3,23.17,32.65,23.81,31.3,23.81Zm-7.72-.08H31.3c1.31,0,1.93-.59,1.93-1.86V20.46c0-1.27-.62-1.85-1.93-1.85H23.58Z"/><path class="cls-4" d="M38.3,11.2a4.78,4.78,0,0,1-1.58.44,4.45,4.45,0,0,1-.24-1,8.44,8.44,0,0,1,1.78-.43h0A8,8,0,0,1,38.3,11.2Z"/><path class="cls-5" d="M33.06,13.31a5.45,5.45,0,0,1,1.69-1.75,5.86,5.86,0,0,0,3,1.86,5.28,5.28,0,0,0,.56-2.22,6.51,6.51,0,0,0,1.63-1,6.48,6.48,0,0,1,4.22,1.61,6.82,6.82,0,0,1-5.23,3.18A6.73,6.73,0,0,1,33.06,13.31Z"/><path class="cls-6" d="M37.13,6.87A9.15,9.15,0,0,1,37.59,6a6.56,6.56,0,0,1,4.65-3.37,6.44,6.44,0,0,1-.82,5.72,7.9,7.9,0,0,1-1.49,1.79,9.48,9.48,0,0,0-1.65.08,7.64,7.64,0,0,0-.75-2.61C37.4,7.35,37.27,7.1,37.13,6.87Z"/><path class="cls-7" d="M34.75,11.56a8.2,8.2,0,0,1-1.32-2,6.65,6.65,0,0,1-.31-5.8,6.28,6.28,0,0,1,4,3.09,6.88,6.88,0,0,0-.65,3.8A7.16,7.16,0,0,0,34.75,11.56Z"/><path class="cls-8" d="M39.93,10.15a6.51,6.51,0,0,1-1.63,1,8,8,0,0,0,0-1A9.48,9.48,0,0,1,39.93,10.15Z"/><path class="cls-9" d="M34.75,11.56a7.16,7.16,0,0,1,1.73-.89,4.45,4.45,0,0,0,.24,1,4.78,4.78,0,0,0,1.58-.44,5.28,5.28,0,0,1-.56,2.22A5.86,5.86,0,0,1,34.75,11.56Z"/><path class="cls-10" d="M37.13,6.87c.14.23.27.48.4.75a7.64,7.64,0,0,1,.75,2.61h0a8.44,8.44,0,0,0-1.78.43A6.88,6.88,0,0,1,37.13,6.87Z"/><path class="cls-2" d="M8.06,28.53a.49.49,0,0,0,.08.28.55.55,0,0,0,.48.2,1.18,1.18,0,0,0,.28,0,.31.31,0,0,0,.25-.31.3.3,0,0,0-.1-.24,1.47,1.47,0,0,0-.33-.12l-.28-.06a1.46,1.46,0,0,1-.38-.13.44.44,0,0,1-.19-.38.55.55,0,0,1,.19-.45.72.72,0,0,1,.53-.18.85.85,0,0,1,.54.16.54.54,0,0,1,.23.49H9.1A.44.44,0,0,0,9,27.5a.5.5,0,0,0-.43-.16.5.5,0,0,0-.35.1.33.33,0,0,0-.1.24.24.24,0,0,0,.12.22,2.6,2.6,0,0,0,.37.11l.29.06a.9.9,0,0,1,.31.13.48.48,0,0,1,.2.41.52.52,0,0,1-.25.49,1.15,1.15,0,0,1-.57.14A.84.84,0,0,1,8,29.05a.67.67,0,0,1-.21-.52Z"/><path class="cls-2" d="M11.69,28.35l-.31-.9-.33.9Zm-.45-1.2h.31l.74,2H12l-.2-.61H11l-.22.61h-.29Z"/><polygon class="cls-2" points="13.42 27.15 13.69 27.15 13.69 28.94 14.72 28.94 14.72 29.18 13.42 29.18 13.42 27.15"/><path class="cls-2" d="M17.33,27.3a.77.77,0,0,1,.24.46H17.3a.51.51,0,0,0-.57-.42.6.6,0,0,0-.48.21,1,1,0,0,0-.18.64,1,1,0,0,0,.16.58.58.58,0,0,0,.5.22.53.53,0,0,0,.46-.23.86.86,0,0,0,.13-.32h.27a1,1,0,0,1-.24.53.82.82,0,0,1-.65.26.88.88,0,0,1-.6-.21A1.3,1.3,0,0,1,16,27.41a.86.86,0,0,1,.71-.31A.81.81,0,0,1,17.33,27.3Z"/><path class="cls-2" d="M20.47,27.44a1.09,1.09,0,0,1,.21.69,1.23,1.23,0,0,1-.23.76.93.93,0,0,1-.78.35.9.9,0,0,1-.73-.31,1.16,1.16,0,0,1-.24-.75,1.26,1.26,0,0,1,.2-.71.9.9,0,0,1,.78-.37A.91.91,0,0,1,20.47,27.44Zm-.24,1.3a1.12,1.12,0,0,0,.16-.6.89.89,0,0,0-.18-.58.64.64,0,0,0-.51-.22.66.66,0,0,0-.52.22.91.91,0,0,0-.2.64.93.93,0,0,0,.17.56.65.65,0,0,0,.56.24A.57.57,0,0,0,20.23,28.74Z"/><path class="cls-2" d="M22.65,28a.62.62,0,0,0,.27-.05.27.27,0,0,0,.15-.27.27.27,0,0,0-.16-.27.64.64,0,0,0-.27,0h-.49V28Zm.09.94a.41.41,0,0,0,.36-.15.34.34,0,0,0,.07-.22.3.3,0,0,0-.2-.3.68.68,0,0,0-.27-.05h-.55V29Zm-.86-1.8h.87a.58.58,0,0,1,.51.21.53.53,0,0,1,.09.3.47.47,0,0,1-.11.31.74.74,0,0,1-.16.12.7.7,0,0,1,.23.13.5.5,0,0,1,.14.37.56.56,0,0,1-.13.35.67.67,0,0,1-.58.24h-.86Z"/><path class="cls-2" d="M25.6,28.08a.49.49,0,0,0,.31-.08.31.31,0,0,0,.11-.27.29.29,0,0,0-.16-.3.46.46,0,0,0-.22,0H25v.69Zm-.91-.93h.94a.83.83,0,0,1,.38.07.49.49,0,0,1,.29.48.56.56,0,0,1-.08.3.46.46,0,0,1-.21.18.52.52,0,0,1,.18.13.51.51,0,0,1,.07.26v.27a.65.65,0,0,0,0,.17.15.15,0,0,0,.09.13v0H26a.14.14,0,0,1,0-.07A1.08,1.08,0,0,1,26,29v-.33a.29.29,0,0,0-.15-.27.54.54,0,0,0-.25,0H25v.87h-.28Z"/><path class="cls-2" d="M28.63,28.35l-.31-.9-.33.9Zm-.46-1.2h.32l.73,2h-.3l-.21-.61h-.8l-.22.61h-.28Z"/><polygon class="cls-2" points="30.36 27.15 30.68 27.15 31.7 28.8 31.7 27.15 31.97 27.15 31.97 29.18 31.66 29.18 30.62 27.54 30.62 29.18 30.36 29.18 30.36 27.15"/><path class="cls-2" d="M34.06,29a.75.75,0,0,0,.23,0,.53.53,0,0,0,.26-.21.72.72,0,0,0,.12-.31,1.8,1.8,0,0,0,0-.22,1,1,0,0,0-.15-.58.55.55,0,0,0-.48-.21h-.49V29Zm-.77-1.8h.83a.78.78,0,0,1,.65.3,1.15,1.15,0,0,1,.2.69,1.37,1.37,0,0,1-.12.58.75.75,0,0,1-.74.46h-.82Z"/><polygon class="cls-2" points="6.89 13.83 7.73 13.83 7.73 13.97 7.06 13.97 7.06 14.34 7.65 14.34 7.65 14.49 7.06 14.49 7.06 15.04 6.89 15.04 6.89 13.83"/><path class="cls-2" d="M8.9,14.54,8.72,14l-.2.53Zm-.27-.71h.18L9.25,15H9.07L9,14.67H8.47L8.34,15H8.17Z"/><path class="cls-2" d="M10.43,14.38a.27.27,0,0,0,.18-.05.19.19,0,0,0,.07-.16.17.17,0,0,0-.1-.18l-.13,0h-.4v.41Zm-.55-.55h.56a.5.5,0,0,1,.23,0,.27.27,0,0,1,.17.28.32.32,0,0,1,0,.18.28.28,0,0,1-.13.11.31.31,0,0,1,.11.08.27.27,0,0,1,0,.15v.16a.56.56,0,0,0,0,.1s0,.07.05.08v0h-.2v0a.34.34,0,0,1,0-.11v-.2a.2.2,0,0,0-.09-.16l-.15,0h-.37V15H9.88Z"/><path class="cls-2" d="M11.54,13.83h.24l.34,1,.35-1h.23V15h-.16v-.72a.68.68,0,0,1,0-.12V14l-.35,1H12l-.35-1v.17a.72.72,0,0,1,0,.13V15h-.16Z"/><path class="cls-2" d="M14,14.54,13.85,14l-.2.53Zm-.27-.71H14L14.39,15h-.18l-.13-.37h-.47l-.13.37h-.17Z"/><path class="cls-2" d="M15.81,13.92a.36.36,0,0,1,.14.27H15.8a.33.33,0,0,0-.11-.18.33.33,0,0,0-.23-.07.37.37,0,0,0-.29.12.6.6,0,0,0-.11.39.53.53,0,0,0,.1.34.35.35,0,0,0,.3.13.29.29,0,0,0,.27-.14.42.42,0,0,0,.08-.19H16a.56.56,0,0,1-.15.32.46.46,0,0,1-.38.16.57.57,0,0,1-.36-.13.69.69,0,0,1-.19-.52A.63.63,0,0,1,15,14a.52.52,0,0,1,.42-.19A.45.45,0,0,1,15.81,13.92Z"/><rect class="cls-3" x="16.67" y="13.83" width="0.17" height="1.21"/><path class="cls-2" d="M18.18,14.54,18,14l-.2.53Zm-.27-.71h.19L18.53,15h-.17l-.13-.37h-.47l-.14.37h-.16Z"/><path class="cls-2" d="M19.25,14.65a.38.38,0,0,0,.05.16.33.33,0,0,0,.29.12l.17,0a.19.19,0,0,0,.14-.19.17.17,0,0,0-.06-.14.77.77,0,0,0-.19-.07l-.17,0a.6.6,0,0,1-.22-.08.24.24,0,0,1-.12-.22.37.37,0,0,1,.11-.27.46.46,0,0,1,.32-.1.53.53,0,0,1,.32.09.33.33,0,0,1,.14.29h-.16a.25.25,0,0,0-.05-.15.3.3,0,0,0-.25-.09.29.29,0,0,0-.21.06.2.2,0,0,0-.06.14.14.14,0,0,0,.07.13,1.13,1.13,0,0,0,.22.07l.17,0a.47.47,0,0,1,.19.07.28.28,0,0,1,.11.25.3.3,0,0,1-.14.28.64.64,0,0,1-.34.09.52.52,0,0,1-.35-.11.39.39,0,0,1-.13-.31Z"/></g></g></svg>