<svg xmlns="http://www.w3.org/2000/svg" viewBox="0 0 100.12 100.38"><defs><style>.cls-1{fill:#f39100;}.cls-2{fill:none;}</style></defs><title>Recurso 25</title><g id="Capa_2" data-name="Capa 2"><g id="Capa_1-2" data-name="Capa 1"><path d="M25.33,99.7a13.91,13.91,0,0,0,4.2.68,13.44,13.44,0,0,0,8.37-3.12,27.6,27.6,0,0,0,4.63-4.46c5.17-6.45,6.59-14.34,4.35-24.1-1.36-5.9-5.54-9.62-11.77-10.47a12.89,12.89,0,0,0-1.81-.12,33.7,33.7,0,0,0-4.26.36c-.77.09-1.53.19-2.29.26h-.11l-.46,0-.08-.44,0-.12c0-.21-.08-.44-.12-.68a15,15,0,0,0-6.84-10.31A6.14,6.14,0,0,0,16.05,46a2,2,0,0,0-.49.07,1.77,1.77,0,0,0-1.15,1c-1,1.89,0,2.68,1.55,3.6l.57.34a10.44,10.44,0,0,1,4.91,7.45l0,.21.14.84-.8-.29-.2-.07L20.24,59a11.47,11.47,0,0,0-5.11-1.12,15.27,15.27,0,0,0-6.76,1.61A14,14,0,0,0,.67,69.67a38.24,38.24,0,0,0-.62,4.79c-.42,8.39,1.72,14.89,6.56,19.88,2.5,2.58,6.45,6,11.8,6a14.46,14.46,0,0,0,4.67-.82,2.27,2.27,0,0,1,.72-.11A5.08,5.08,0,0,1,25.33,99.7Zm-3.2-4.6a10.75,10.75,0,0,1-3.44.6c-2.63,0-5.13-1.11-7.66-3.41-4.38-4-6.49-9.05-6.62-15.92V76.3q.12-.87.21-1.71l0-.13a36.85,36.85,0,0,1,.63-4.06,10.4,10.4,0,0,1,5.46-7.13,8.62,8.62,0,0,1,3.7-.83,9.41,9.41,0,0,1,4.19,1,12.45,12.45,0,0,0,5.47,1.46,10,10,0,0,0,5.15-1.54,7.34,7.34,0,0,1,3.69-.94,10.1,10.1,0,0,1,9.65,7.81c1.77,9.7.07,16.42-5.52,21.81-2.56,2.47-5.14,3.67-7.89,3.67A10.87,10.87,0,0,1,25.48,95,4.55,4.55,0,0,0,24,94.8,5.93,5.93,0,0,0,22.13,95.1Z"/><path class="cls-1" d="M30,55.71c1.19-.16,2.36-.5,3.55-.67,6.35-.92,9.49-4.95,10.66-10.91.49-2.46-.4-3.55-3.73-3.48-1.27.19-3.34.4-5.37.81-2.31.47-4.47,1.52-5.41,3.75a45.42,45.42,0,0,0-2.43,8C26.91,54.9,28.22,56,30,55.71Zm10.05-11c-1.21,4.49-3.79,6.41-8.6,6.56C32.24,46.34,34.55,44.54,40.06,44.73Z"/><path class="cls-1" d="M28.54,90.66a2.43,2.43,0,0,1-.8-4.72c4.55-1.59,4.83-6.41,4.83-6.46a2.46,2.46,0,0,1,2.53-2.31,2.42,2.42,0,0,1,2.31,2.54c0,.33-.46,8.14-8.06,10.81A2.56,2.56,0,0,1,28.54,90.66Z"/><path class="cls-1" d="M28.54,91.16a2.93,2.93,0,0,1-1-5.69,7,7,0,0,0,4.5-6,2.92,2.92,0,0,1,5.84.28c0,.34-.49,8.48-8.4,11.26A2.91,2.91,0,0,1,28.54,91.16ZM35,77.67a2,2,0,0,0-1.94,1.84c0,.21-.36,5.22-5.16,6.91a1.92,1.92,0,0,0-1.18,2.45,2,2,0,0,0,2.45,1.18c7.28-2.56,7.72-10,7.73-10.37a1.92,1.92,0,0,0-1.83-2Z"/><path d="M96.64,32.34,88.23,15.87l-.33-3.15a3.82,3.82,0,0,0,2.4-3.54V3.82A3.82,3.82,0,0,0,86.48,0H65.76a3.83,3.83,0,0,0-3.82,3.82V9.18a3.83,3.83,0,0,0,2.5,3.57l-.31,3.61L56.57,31.62c-2.28,2.75-3.3,7.51-3.3,10.11V93.51a6.6,6.6,0,0,0,6.59,6.6H92.78a6.61,6.61,0,0,0,6.6-6.6V41.73A14.12,14.12,0,0,0,96.64,32.34ZM66.83,4.89H85.41V8.11H66.83Zm2.1,12.81L69.32,13,83,13l.45,4.28,5.39,10.55a5.84,5.84,0,0,1-4.61,2c-1.72,0-2-.3-2.56-1a6.22,6.22,0,0,0-5.36-2.44A6.21,6.21,0,0,0,71,28.87c-.59.68-.86,1-2.63,1a4.61,4.61,0,0,1-4.23-2.44ZM94.49,93.51a1.72,1.72,0,0,1-1.71,1.71H59.86a1.71,1.71,0,0,1-1.7-1.71V41.73c0-1.87.88-5.57,2.28-7.11l.22-.25,1.07-2.16a9.43,9.43,0,0,0,6.61,2.54c3.7,0,5.16-1.32,6.33-2.68.55-.64.64-.74,1.65-.74s1.1.1,1.65.74c1.16,1.36,2.6,2.68,6.27,2.68a10.65,10.65,0,0,0,6.92-2.39l1.22,2.4.24.38c1.87,2.42,1.87,4.45,1.87,6.59Z"/><path d="M72.9,20.3h6.64a2.45,2.45,0,1,0,0-4.89H72.9a2.45,2.45,0,0,0,0,4.89Z"/><path d="M64.39,40.89a2.45,2.45,0,0,0-2.45,2.45V73.77a2.45,2.45,0,1,0,4.89,0V43.34A2.45,2.45,0,0,0,64.39,40.89Z"/><path d="M64.39,77.76a2.45,2.45,0,0,0-2.45,2.45v8.12a2.45,2.45,0,0,0,4.89,0V80.21A2.45,2.45,0,0,0,64.39,77.76Z"/><rect class="cls-2" x="0.12" y="0.26" width="100" height="100"/></g></g></svg>