<svg xmlns="http://www.w3.org/2000/svg" viewBox="0 0 100 100"><defs><style>.cls-1{fill:#f39100;}.cls-2{fill:none;}</style></defs><title>Recurso 22</title><g id="Capa_2" data-name="Capa 2"><g id="Capa_1-2" data-name="Capa 1"><path class="cls-1" d="M87,62.35H79.83V55.23a4.15,4.15,0,1,0-8.3,0v7.12H64.41a4.15,4.15,0,1,0,0,8.3h7.12v7.12a4.15,4.15,0,1,0,8.3,0V70.65H87a4.15,4.15,0,0,0,0-8.3Z"/><path d="M91.13,16a27.63,27.63,0,0,0-39,0l-2.52,2.52L47.52,16.5A28.85,28.85,0,0,0,27.06,8.18a27,27,0,0,0-19.4,8.23A27.74,27.74,0,0,0,8,55.07L45.45,92.49a5.83,5.83,0,0,0,8.25,0L64.22,82a2.88,2.88,0,0,0-4.08-4.07L49.53,88.41,12.11,51a21.94,21.94,0,0,1-.3-30.58,21.32,21.32,0,0,1,15.3-6.47,22.74,22.74,0,0,1,16.33,6.63l6.14,6.14,6.59-6.6A21.84,21.84,0,0,1,87.05,51a2.88,2.88,0,0,0,4.08,4.08A27.63,27.63,0,0,0,91.13,16Z"/><path d="M18.49,26.77a2.88,2.88,0,0,0-4,.93C12,31.74,10,41.77,20.25,50.79a2.88,2.88,0,1,0,3.81-4.33C15.15,38.63,19,31.53,19.43,30.72A2.89,2.89,0,0,0,18.49,26.77Z"/><rect class="cls-2" width="100" height="100"/></g></g></svg>