<svg xmlns="http://www.w3.org/2000/svg" viewBox="0 0 100.73 100.37"><defs><style>.cls-1{stroke:#000;stroke-miterlimit:10;stroke-width:0.5px;}.cls-2{fill:#f39100;}.cls-3{fill:none;}</style></defs><title>Recurso 24</title><g id="Capa_2" data-name="Capa 2"><g id="Capa_1-2" data-name="Capa 1"><path class="cls-1" d="M100.25,74.4A92.34,92.34,0,0,0,92,42.11C89.84,37.41,86.68,31.44,81.42,27c-4.71-4-8.88-5.83-12.72-5.62-4.84.25-7.69,3.31-8.48,9.09-.35,2.59-.65,5.24-.92,7.58L59,40.44c-.61-.41-1.24-.84-1.85-1.29V4.75l-.07-.3c-.41-1.56-2.29-4.2-6.73-4.2S44,2.89,43.63,4.45l-.07.24V37.58l0,1.55c-.62.46-1.27.91-1.86,1.32-.1-.82-.2-1.64-.29-2.46v-.06c-.28-2.45-.57-5-.91-7.47-.79-5.78-3.64-8.83-8.48-9.09C28.17,21.17,24,23,19.31,27c-5.26,4.45-8.42,10.42-10.59,15.12A92.34,92.34,0,0,0,.48,74.4,51.86,51.86,0,0,0,1,88c1.58,8,4.68,12.64,15.29,10.84A69.92,69.92,0,0,0,27.5,95.68,22,22,0,0,0,43,75.4l.37-21.15a8.47,8.47,0,0,1,14,0l.37,21.07c0,.15-.1,15.22,15.46,20.35a69.84,69.84,0,0,0,11.29,3.14,26.17,26.17,0,0,0,4.32.42c6.14,0,9.42-3.37,11-11.26A52.26,52.26,0,0,0,100.25,74.4ZM61.62,53V53l-.29-.48c-.15-.26-3.79-6.22-11-6.22s-10.82,6-11,6.22l-.29.48-.4,22.44A17.58,17.58,0,0,1,26.13,91.63a66.65,66.65,0,0,1-10.6,3c-7.45,1.26-9-.66-10.39-7.46a48.06,48.06,0,0,1-.4-12.44A88.36,88.36,0,0,1,12.6,43.9c2-4.3,4.86-9.74,9.47-13.65,3.63-3.07,6.78-4.62,9.38-4.62h.36c1.82.1,3.81.6,4.46,5.4.34,2.5.65,5.12.91,7.44l.06.47c.12,1.07.25,2.13.37,3.2,0,.33.09.66.16,1.08L28.33,50.7a2.14,2.14,0,0,0-.34,3,2.14,2.14,0,0,0,3,.35l10.33-8.18,1.61-1.09c1.45-1,2.83-1.9,4.12-2.93l.81-.64,0-35.76c.21-.32.85-.93,2.54-.93s2.34.64,2.53.91l0,35.67v.11l.81.64c1.3,1,2.67,1.95,4.14,2.94l1.64,1.11L61,47,70,54.05a2.14,2.14,0,0,0,2.66-3.35L63,43.08c0-.35.09-.65.13-.94.13-1.06.25-2.12.37-3.19l0-.42c.27-2.34.58-5,.92-7.49.65-4.8,2.65-5.3,4.46-5.4q4.06-.2,9.74,4.61c4.61,3.91,7.48,9.35,9.47,13.65A88.36,88.36,0,0,1,96,74.7a48.06,48.06,0,0,1-.4,12.44c-1.34,6.8-3,8.71-10.39,7.46a66.87,66.87,0,0,1-10.63-3A17.45,17.45,0,0,1,62,75.32Z"/><path class="cls-2" d="M34.57,56.48c-3.19-1.45-7,1.28-7.39,1.59a1.9,1.9,0,1,0,2.28,3c.78-.58,2.68-1.56,3.54-1.17.53.24.91,1.29,1,2.81a1.9,1.9,0,0,0,1.89,1.75h.15a1.89,1.89,0,0,0,1.74-2C37.58,59.36,36.48,57.35,34.57,56.48Z"/><path class="cls-2" d="M22.78,58.51c1.45-3.19-1.28-7-1.59-7.39a1.9,1.9,0,0,0-3,2.28c.58.78,1.56,2.68,1.17,3.54-.24.53-1.29.91-2.8,1a1.89,1.89,0,0,0-1.76,1.89.61.61,0,0,0,0,.14,1.9,1.9,0,0,0,2,1.75C19.9,61.52,21.91,60.42,22.78,58.51Z"/><path class="cls-2" d="M21.67,65c-3.28,1.23-4,5.83-4.1,6.35a1.9,1.9,0,1,0,3.76.53c.14-1,.79-3,1.68-3.33.54-.2,1.55.27,2.71,1.26a1.89,1.89,0,0,0,2.57-.1.94.94,0,0,0,.1-.1,1.9,1.9,0,0,0-.2-2.68C25.83,64.88,23.64,64.23,21.67,65Z"/><path class="cls-2" d="M73.76,60.73a1.9,1.9,0,0,0-.38-2.66c-.42-.31-4.19-3-7.38-1.59-1.92.87-3,2.88-3.25,6a1.9,1.9,0,0,0,1.75,2h.15a1.9,1.9,0,0,0,1.89-1.75c.12-1.52.5-2.57,1-2.81.87-.39,2.77.59,3.54,1.17A1.9,1.9,0,0,0,73.76,60.73Z"/><path class="cls-2" d="M84.05,58c-1.52-.12-2.57-.5-2.8-1-.39-.86.58-2.76,1.17-3.54a1.9,1.9,0,0,0-3-2.28c-.32.42-3,4.2-1.59,7.39.86,1.91,2.87,3,6,3.24a1.9,1.9,0,0,0,2-1.75v-.14A1.88,1.88,0,0,0,84.05,58Z"/><path class="cls-2" d="M78.9,65c-2-.74-4.16-.09-6.52,1.93a1.9,1.9,0,0,0-.21,2.68l.1.1a1.9,1.9,0,0,0,2.58.1c1.16-1,2.17-1.46,2.71-1.26.88.34,1.54,2.37,1.67,3.33A1.9,1.9,0,0,0,83,71.32C82.92,70.8,82.18,66.2,78.9,65Z"/><rect class="cls-3" x="0.25" y="0.37" width="100" height="100"/></g></g></svg>