<svg xmlns="http://www.w3.org/2000/svg" viewBox="0 0 100 100.06"><defs><style>.cls-1{fill:#f39100;}.cls-2{fill:none;}</style></defs><title>Recurso 20</title><g id="Capa_2" data-name="Capa 2"><g id="Capa_1-2" data-name="Capa 1"><path d="M83.77,18.1C76.68,4.66,62.55-2.06,46.91.56a33.28,33.28,0,0,0-28,30.5A27.44,27.44,0,0,1,16.9,39.3c-1.74,4.2-3.46,8.54-5,12.37l-.56,1.43c-1,2.47-.53,4,0,4.81s1.77,1.8,4.4,1.82h3v2.88c0,1.6,0,3.24,0,4.86.1,8.25,5.64,14.13,13.8,14.62,3.41.21,6.88.13,9.94,0h.14c.63,0,.77.15,1,.88,1.36,4.22,2.83,8.62,4,12.16l.88,2.63a3.18,3.18,0,0,0,1.42,2,2,2,0,0,0,.93.21,4.8,4.8,0,0,0,1.53-.33l28.6-10a3.09,3.09,0,0,0,2-1.57,3.17,3.17,0,0,0-.42-2.57l-.16-.3c-.92-1.75-1.86-3.56-2.65-5.41-3.49-8.26-3.25-15.69.75-22.72A70,70,0,0,0,85.41,46.5C89,36.58,88.48,27,83.77,18.1ZM80.11,47.17c-1.22,2.8-2.67,6-4.33,9.09-3.91,7.12-4.24,14.86-1,23.66.57,1.56,1.23,3.06,1.93,4.65L77.3,86l-.13,0L52.48,94.66l0-.13L48.61,83.11c-.37-1.08-.78-2.31-1.15-3.51a2.86,2.86,0,0,0-3.05-2.19c-3.14,0-6.35,0-9.45,0H33.69c-6.16,0-10.15-4-10.17-10.16,0-1.25,0-2.5,0-3.75V63q0-2.45,0-4.89c0-2.22-.84-3.05-3.07-3.06H15.69l.05-.17.15-.43,2.35-5.86c1.7-4.25,3.23-8.08,4.74-11.93a6.91,6.91,0,0,0,.51-2.52c.15-15,10.07-26.68,24.7-28.94a38,38,0,0,1,5.6-.44c15.1,0,24.84,10.08,28,21.08A30.81,30.81,0,0,1,80.11,47.17Z"/><path class="cls-1" d="M54.09,10.68H54c-12.52,0-22.91,9.92-23.16,22A23.63,23.63,0,0,0,37.5,49.84a22.48,22.48,0,0,0,16.17,6.8,23.51,23.51,0,0,0,16.72-6.86,22.34,22.34,0,0,0,6.69-15.89A23.13,23.13,0,0,0,70.27,17.4,22.8,22.8,0,0,0,54.09,10.68ZM67,46.88a18.5,18.5,0,0,1-13,5.31H53.8A18.67,18.67,0,0,1,35.32,33.4,18.22,18.22,0,0,1,41,20.4a18.82,18.82,0,0,1,13.08-5.25h.27a18.79,18.79,0,0,1,18.3,18.73A18.4,18.4,0,0,1,67,46.88Z"/><path class="cls-1" d="M54,21.13h-.06a12.81,12.81,0,0,0-9,3.82,12.05,12.05,0,0,0-3.59,8.58A12.4,12.4,0,0,0,53.93,46.14a12.81,12.81,0,0,0,9.12-3.77,12.14,12.14,0,0,0,3.61-8.63,12.48,12.48,0,0,0-3.74-8.89A12.61,12.61,0,0,0,54,21.13Zm0,20.61a8.1,8.1,0,0,1-5.8-2.39,8.25,8.25,0,0,1-2.4-5.9,7.61,7.61,0,0,1,2.36-5.37A8.43,8.43,0,0,1,54,25.63a8.26,8.26,0,0,1,8.17,8.07A8.27,8.27,0,0,1,54,41.74Z"/><path class="cls-1" d="M50.29,33.66A3.65,3.65,0,0,0,54,37.21a3.81,3.81,0,0,0,2.58-1.09,3.53,3.53,0,0,0,1.09-2.55A3.81,3.81,0,0,0,54,30.07h0a3.89,3.89,0,0,0-2.69,1.12A3.47,3.47,0,0,0,50.29,33.66Z"/><rect class="cls-2" width="100" height="100"/></g></g></svg>