<svg xmlns="http://www.w3.org/2000/svg" viewBox="0 0 100 100"><defs><style>.cls-1{fill:#f39100;}.cls-2,.cls-3{fill:none;}.cls-3{stroke:#000;stroke-linecap:round;stroke-miterlimit:10;stroke-width:4px;}</style></defs><title>Recurso 17</title><g id="Capa_2" data-name="Capa 2"><g id="Capa_1-2" data-name="Capa 1"><path d="M98,86.67c-1-3.92-3.74-6.22-8-6.84A108.78,108.78,0,0,1,58.23,70C54.08,68,52,64.73,51.94,60l-.06-3.25-.09-4.48h-5v.26c.06,3.52.15,6.42.27,9.13.27,5.84,3.17,10.11,8.62,12.69A117.1,117.1,0,0,0,88.8,84.74a11.34,11.34,0,0,1,1.44.32,4.07,4.07,0,0,1-.85,8H89c-7.46,0-15.18.09-22.88,0a12.16,12.16,0,0,1-3.57-.7l-.25-.1a11.19,11.19,0,0,0-1.75-.58l-1.91-.43-.08,0A52.59,52.59,0,0,0,51,89.86c-7.07-.55-14.41.31-23.08,2.71a13.18,13.18,0,0,1-10.6-1.3A12.18,12.18,0,0,1,11.8,83c-.74-3.86.2-7.48,1.22-10.51.31-.94.64-1.87,1-2.83l.06-.19A66.7,66.7,0,0,0,17,59.71a73.49,73.49,0,0,0-.09-29A82.27,82.27,0,0,1,15.31,5.82l.07-.71H52L51.93,6c0,.31-.06.62-.11,1s0,1.31,0,2.67v.1c0,1.74,0,2.82,0,3.18l-.28,8.07.22,0c.26.05.23-.18.57-.18.94,0,2.1,1.06,3.14,2l.48.57.06-.49c.4-3.48.6-10.29.88-15.17v-.2c.13-2.27.26-4.4.37-6.11a1.23,1.23,0,0,0-.34-1A1.28,1.28,0,0,0,55.92,0L13.28,0l-.15,0a2.92,2.92,0,0,0-2.57,2.48,79.33,79.33,0,0,0,1,26.63,72.44,72.44,0,0,1,.84,27.48,79.33,79.33,0,0,1-3.16,11.3c-.4,1.22-.81,2.43-1.19,3.64C6,78.14,6,83.15,8.07,87.84c3.72,8.28,12.46,12.09,21.75,9.47a59.18,59.18,0,0,1,20.57-2.44,53.51,53.51,0,0,1,7.18,1.2l.88.19c1,.21,2,.51,2.94.8a18.53,18.53,0,0,0,4.77,1q5.64.18,11.33.18c3.91,0,7.82-.06,11.71-.19A11.09,11.09,0,0,0,94.94,96C97.93,93.82,99,90.51,98,86.67Z"/><path class="cls-1" d="M63.13,41.74c2.5-8.48-3.07-15.41-6.61-18.78a27.74,27.74,0,0,0-5-3.7l-.35,5.26c2.17,1.57,9.56,7.69,6.61,16.3-2.36,6.88-8.3,9.6-11,10.5l.12,4.33a23.11,23.11,0,0,0,2.6-.35A19.28,19.28,0,0,0,63.13,41.74Z"/><path class="cls-1" d="M79,39.73l-6.54-.94a3.23,3.23,0,1,0-.92,6.4l6.54.94.46,0A3.23,3.23,0,0,0,79,39.73Z"/><path class="cls-1" d="M69.65,28.18a3.24,3.24,0,0,0,1.93-.64l5.55-4.15a3.23,3.23,0,0,0-3.88-5.17l-5.54,4.15a3.23,3.23,0,0,0,1.94,5.81Z"/><path class="cls-1" d="M66.37,54.73a3.23,3.23,0,0,0-5.17,3.88l3.72,5a3.2,3.2,0,0,0,2.59,1.29,3.23,3.23,0,0,0,2.58-5.17Z"/><rect class="cls-2" width="100" height="100"/><path class="cls-3" d="M23.38,69s-3.28,11,10,11"/></g></g></svg>