<svg xmlns="http://www.w3.org/2000/svg" viewBox="0 0 100 100"><defs><style>.cls-1{fill:#f39100;}.cls-2{fill:none;}</style></defs><title>Recurso 16</title><g id="Capa_2" data-name="Capa 2"><g id="Capa_1-2" data-name="Capa 1"><path class="cls-1" d="M55.32,49.57A6.1,6.1,0,0,1,53.6,38a12.2,12.2,0,1,0,8.49,13.35,12.45,12.45,0,0,0,0-3.34.81.81,0,0,0-1.41-.42A6.06,6.06,0,0,1,55.32,49.57Z"/><path d="M98.1,45.42c-6.89-6.94-25-22.87-46.53-23.62-.52,0-1-.05-1.57-.05s-1,0-1.57.05C26.89,22.55,8.79,38.48,1.9,45.42a6.52,6.52,0,0,0,0,9.17C9,61.7,27.77,78.25,50,78.25S91,61.7,98.1,54.59h0A6.52,6.52,0,0,0,98.1,45.42ZM50,74.08A24.1,24.1,0,1,1,74.1,50,24.13,24.13,0,0,1,50,74.08ZM4.73,48.23c4.35-4.39,13.4-12.55,24.87-17.74a28.17,28.17,0,0,0,.08,39.06C18.16,64.36,9.09,56.18,4.73,51.78A2.53,2.53,0,0,1,4.73,48.23Zm90.54,3.55h0c-4.36,4.4-13.43,12.58-25,17.77a28.17,28.17,0,0,0,.08-39.06c11.47,5.19,20.52,13.35,24.87,17.74A2.53,2.53,0,0,1,95.27,51.78Z"/><rect class="cls-2" width="100" height="100"/></g></g></svg>