<svg xmlns="http://www.w3.org/2000/svg" viewBox="0 0 100 100.26"><defs><style>.cls-1{fill:#f39100;}.cls-2{stroke:#000;stroke-miterlimit:10;stroke-width:0.5px;}.cls-3{fill:none;}</style></defs><title>Recurso 21</title><g id="Capa_2" data-name="Capa 2"><g id="Capa_1-2" data-name="Capa 1"><path class="cls-1" d="M88.16,71.92,88,70.68a37.21,37.21,0,0,0-1.84-7.63,14,14,0,0,0-8.83-8.41,7.76,7.76,0,0,0,1.22-12A7.66,7.66,0,0,0,73,40.41h0a7.81,7.81,0,0,0-7.76,7.67,7.63,7.63,0,0,0,2.25,5.52,7.81,7.81,0,0,0,1.27,1c-.33.1-.65.19-1,.31a1.25,1.25,0,0,1-.59-.16,5.94,5.94,0,0,1-.94-.9c-.21-.23-.41-.45-.63-.66L57.8,44.68a1.5,1.5,0,1,0-2.3,1.92l1.44,1.57-.95,3a3.31,3.31,0,0,0-.69-.34,1.5,1.5,0,1,0-.79,2.89c1.09.3,8.14,8.07,9.56,9.34a1.43,1.43,0,0,1,.56,1.26c.14,5.24,0,10.59-.08,15.76-.11,5.49-.23,11.17-.06,16.77.1,3,1.71,3.31,3.82,3.38h.17c1.51,0,3.26-.62,3.37-3.41a83.1,83.1,0,0,1,1-8.72c.23,2.91.45,5.88.58,8.8s1.9,3.36,3.45,3.33c2.15-.05,3.81-.32,3.9-3.3.17-5.27.26-10.62.34-15.79q.06-3.3.12-6.65A3.52,3.52,0,0,0,85,76.46a3.62,3.62,0,0,0,2.54-1.38A3.92,3.92,0,0,0,88.16,71.92Zm-19.9-23.8A4.78,4.78,0,0,1,73,43.41h0a4.76,4.76,0,0,1,0,9.52h0a4.74,4.74,0,0,1-3.39-1.44A4.68,4.68,0,0,1,68.26,48.12ZM85.11,73.26a.62.62,0,0,1-.46.21.86.86,0,0,1-.58-.09c-.07,0-.29-.29-.37-1-.28-2.91-.69-5.73-2.49-8.28a1.5,1.5,0,0,0-1.64-.57,1.47,1.47,0,0,0-1.08,1.36l0,.33c0,.23,0,.47,0,.7-.16,5.09-.25,10.25-.33,15.25-.08,5.16-.17,10.5-.34,15.75a3,3,0,0,1,0,.34c-.21,0-.52,0-.94.05a2.22,2.22,0,0,1-.34,0,1.74,1.74,0,0,1,0-.44c-.15-3.32-.41-6.69-.68-9.94-.18-2.35-.38-4.78-.52-7.17-.1-1.64-.94-2.69-2.15-2.69s-2.16,1.39-2.25,2.76c-.16,2.6-.56,5.29-.94,7.88a84.89,84.89,0,0,0-1,9.08,2.42,2.42,0,0,1-.07.52l-.39,0c-.39,0-.69,0-.88-.05q0-.15,0-.42c-.17-5.53,0-11.16.06-16.62.11-5.2.22-10.58.08-15.89a4.39,4.39,0,0,0-1.56-3.42c-1-.94-5.94-6.35-8.93-8.81l.21-3.42,6,6.58.11.12c.19.18.37.38.55.58a7.53,7.53,0,0,0,1.54,1.4,3.91,3.91,0,0,0,3.17.48C75,55.55,81,58.17,83.34,64.16a35.49,35.49,0,0,1,1.66,7l.21,1.26A1.1,1.1,0,0,1,85.11,73.26Z"/><path class="cls-2" d="M57.4,49.13a36.65,36.65,0,0,0-2.56-12.92C51.37,27.38,45.71,22.1,38,20.46a10.44,10.44,0,0,0,5.23-9.11,10.58,10.58,0,1,0-21.16-.06,10.41,10.41,0,0,0,5.2,9.11,18.8,18.8,0,0,0-7.8,3.51C9.58,31.47,8.05,42.64,7.76,50.38a5.49,5.49,0,0,0,1.61,4.1,5.91,5.91,0,0,0,4.23,1.8,5.84,5.84,0,0,0,5.3-3.8c-.13,3.38-.29,7.06-.45,10.83-.54,12.66-1.1,25.76-.85,30.53l0,.31c.23,4.49,1.34,5.25,5.48,5.25h.61c3.65,0,4.22-1.74,4.69-4.31,1.09-6,2.85-17.85,4-26.1.64,8,1.62,19.16,2.4,24.49.09.58.14,1.08.19,1.51.5,4.26,2,4.46,6.25,4.41h.2a3.8,3.8,0,0,0,4.17-4C45.89,90.26,46,73.66,46,59c0-2.55,0-5.06,0-7.44a4.88,4.88,0,0,0,3.52,4.08,2.27,2.27,0,0,0,.25.06,6.48,6.48,0,0,0,5.45-1.38A7.18,7.18,0,0,0,57.4,49.13ZM32.61,4.72h0a6.45,6.45,0,0,1,4.6,1.9,6.6,6.6,0,0,1,2,4.72h0a6.49,6.49,0,0,1-6.52,6.54h0A6.62,6.62,0,0,1,28,16a6.5,6.5,0,0,1-1.91-4.66A6.69,6.69,0,0,1,32.61,4.72Zm20,46.64a2.62,2.62,0,0,1-2.06.41c-.41-.18-.64-.83-.69-1.93A32.58,32.58,0,0,0,47,37.25q-.26-.55-.54-1.08a3.22,3.22,0,0,0-.52-.68l-.19-.2A2,2,0,0,0,42.3,36.4c0,.16,0,.3-.06.44a9.94,9.94,0,0,0-.1,1C42.07,42,42,50.27,42,59c-.06,14.6-.12,31.15-.38,36.18,0,.08,0,.14,0,.2H41.2c-.8,0-1.61,0-2.11,0,0-.25-.08-.57-.11-.87-.06-.46-.12-1-.21-1.62-1.2-8.2-2.88-30.5-3-32.92a2,2,0,0,0-1.89-1.88L31.68,58a2,2,0,0,0-2.11,1.86C29.43,62,26.12,85.2,24.46,94.37c-.05.29-.12.71-.2,1a4.4,4.4,0,0,1-.61,0c-.56,0-1.42,0-1.94,0,0-.37-.07-.92-.1-1.43v-.32c-.25-4.57.31-17.57.85-30.14.44-10.36.85-20.13.8-24.59,0-.45,0-.9,0-1.47V36.33a2,2,0,0,0-3.59-1.22A15.9,15.9,0,0,0,16.59,42c-.55,2.78-.89,5.55-1.19,8.15a2.17,2.17,0,0,1-1.85,2.12,1.92,1.92,0,0,1-1.32-.59,1.55,1.55,0,0,1-.47-1.16c.41-11.17,3.54-18.4,10.12-23.45,3.07-2.36,7-3.38,11.82-3.15,8.24.39,13.94,4.89,17.42,13.74A32.67,32.67,0,0,1,53.4,49.18,3.19,3.19,0,0,1,52.59,51.36Z"/><rect class="cls-3" width="100" height="100"/></g></g></svg>