<svg xmlns="http://www.w3.org/2000/svg" viewBox="0 0 206.22 39.24"><defs><style>.cls-1,.cls-2{fill:#295391;}.cls-2{fill-rule:evenodd;}.cls-3{fill:#2a94d2;}.cls-4{fill:#ececec;}.cls-5{fill:#b4b5b5;}</style></defs><title>Recurso 2</title><g id="Capa_2" data-name="Capa 2"><g id="Capa_1-2" data-name="Capa 1"><path class="cls-1" d="M.25,38.93a9.79,9.79,0,0,0,2.15.31,2.4,2.4,0,0,0,2.74-2.45c0-2.35-2.74-3-2.74-4.29,0-.47.61-.64,1-.64a3.17,3.17,0,0,1,1.58.46l-.24-2.13a8.07,8.07,0,0,0-1.91-.26A2.33,2.33,0,0,0,.14,32.26c0,2.29,2.74,3.21,2.74,4.35,0,.63-.64.7-1,.7A3.86,3.86,0,0,1,0,36.71Z"/><path class="cls-2" d="M7.34,39.08l.85-2.59h2.65l.77,2.59H14c-1-3-2.1-6-3-9H8.31c-1.12,3-2.22,6-3.45,9ZM8.73,34.6,9.61,32h0l.78,2.57Z"/><path class="cls-1" d="M17.74,39.08c.67-1.88,2.54-7.15,3.26-9H18.65l-2.12,6.71L14.66,30.1H12.33c.85,2.69,2.64,8.18,2.82,9Z"/><path class="cls-2" d="M21.41,39.08l.86-2.59h2.65l.77,2.59H28.1c-1-3-2.11-6-3-9H22.39c-1.13,3-2.22,6-3.45,9Zm1.4-4.48L23.69,32h0l.78,2.57Z"/><polygon class="cls-1" points="28.42 39.08 34 39.08 34 37.15 30.68 37.15 30.68 30.09 28.42 30.09 28.42 39.08"/><path class="cls-3" d="M25.35,20.77H5.76V0H8.18V18.35H25.35a.47.47,0,0,0,.49-.46.42.42,0,0,0-.46-.43l-7.65,0a8.65,8.65,0,0,1,0-17.29H32.26V2.61H17.73a6.23,6.23,0,0,0,0,12.45l7.64,0a2.84,2.84,0,0,1,2.89,2.85A2.89,2.89,0,0,1,25.35,20.77Z"/><path class="cls-3" d="M25.51,26.61H0V0H2.45V24.19H25.51a6,6,0,0,0,6-6.16,6.22,6.22,0,0,0-6.22-6.2H17.71a2.91,2.91,0,1,1,0-5.81H32.27V8.44H17.71a.48.48,0,0,0-.49.48.49.49,0,0,0,.49.49h7.62A8.64,8.64,0,0,1,34,18,8.43,8.43,0,0,1,25.51,26.61Z"/><rect class="cls-4" x="46.42" width="1.65" height="39.08"/><path class="cls-5" d="M59.15,27.17V13.68h5.3a3.26,3.26,0,0,1,1.53.37,4.17,4.17,0,0,1,1.2,1A4.49,4.49,0,0,1,68,16.38a4.16,4.16,0,0,1,.29,1.54A4.86,4.86,0,0,1,68,19.53a4.25,4.25,0,0,1-.76,1.35,3.67,3.67,0,0,1-1.16.95,3.07,3.07,0,0,1-1.51.37H60.41v5ZM60.41,21h4.1a2.09,2.09,0,0,0,1-.26,2.54,2.54,0,0,0,.78-.68,3.32,3.32,0,0,0,.51-1A3.77,3.77,0,0,0,67,17.92a3.39,3.39,0,0,0-.21-1.19,3.25,3.25,0,0,0-.56-1,2.63,2.63,0,0,0-.83-.65,2.2,2.2,0,0,0-1-.24h-4Z"/><path class="cls-5" d="M79.45,27.17H78.23V21.64a4.69,4.69,0,0,0-.55-2.52,1.82,1.82,0,0,0-1.62-.84,2.56,2.56,0,0,0-1,.22,3.75,3.75,0,0,0-1,.6,4,4,0,0,0-.79.89,4,4,0,0,0-.5,1.12v6.06H71.55V13.3h1.22v6.22a4.48,4.48,0,0,1,1.56-1.77,3.84,3.84,0,0,1,2.14-.65,2.79,2.79,0,0,1,1.38.32,2.64,2.64,0,0,1,.92.87,3.92,3.92,0,0,1,.52,1.35,8.45,8.45,0,0,1,.16,1.74Z"/><path class="cls-5" d="M85.86,27.36a3.37,3.37,0,0,1-1.24-.23,3.18,3.18,0,0,1-1-.66,3,3,0,0,1-.66-1,3.18,3.18,0,0,1-.23-1.21A2.44,2.44,0,0,1,83,23.09a2.73,2.73,0,0,1,.81-.95,3.85,3.85,0,0,1,1.25-.62,5.64,5.64,0,0,1,1.58-.22,8.3,8.3,0,0,1,1.47.14,5.31,5.31,0,0,1,1.31.38v-.9a3,3,0,0,0-.7-2.08,2.52,2.52,0,0,0-2-.77,3.82,3.82,0,0,0-1.48.31,6.89,6.89,0,0,0-1.54.87l-.43-.85a6.12,6.12,0,0,1,3.54-1.3,3.67,3.67,0,0,1,2.78,1,4,4,0,0,1,1,2.89V25.5c0,.36.15.53.45.53v1.14a2.59,2.59,0,0,1-.47.06,1,1,0,0,1-.73-.25,1,1,0,0,1-.28-.68l0-.78A4.24,4.24,0,0,1,88,26.89,4.87,4.87,0,0,1,85.86,27.36Zm.29-1A4,4,0,0,0,87.91,26a2.91,2.91,0,0,0,1.22-1,1.17,1.17,0,0,0,.24-.37.88.88,0,0,0,.08-.37V22.63a7.76,7.76,0,0,0-1.27-.38,6.69,6.69,0,0,0-1.34-.13,3.64,3.64,0,0,0-2.12.57,1.75,1.75,0,0,0-.81,1.5,2.27,2.27,0,0,0,.17.86,2.34,2.34,0,0,0,.47.69,2.07,2.07,0,0,0,.72.46A2.16,2.16,0,0,0,86.15,26.38Z"/><path class="cls-5" d="M99.45,18.41a3.71,3.71,0,0,0-2.16.73A3.55,3.55,0,0,0,96,21v6.15H94.76v-9.9h1.15v2.38a4.47,4.47,0,0,1,1.41-1.79,3.15,3.15,0,0,1,1.9-.64.79.79,0,0,1,.23,0Z"/><path class="cls-5" d="M116.51,27.17h-1.23V21.64a4.8,4.8,0,0,0-.52-2.54,1.72,1.72,0,0,0-1.55-.82,2.52,2.52,0,0,0-1,.21,3.21,3.21,0,0,0-.89.59,3.77,3.77,0,0,0-.71.9,4.34,4.34,0,0,0-.47,1.15v6h-1.23V21.64a5,5,0,0,0-.5-2.56,1.73,1.73,0,0,0-1.56-.8,2.67,2.67,0,0,0-1.89.78,4.39,4.39,0,0,0-1.19,2.05v6.06h-1.23v-9.9h1.12v2.25a4.52,4.52,0,0,1,1.52-1.78,3.62,3.62,0,0,1,2.07-.64,2.6,2.6,0,0,1,1.91.71,3.12,3.12,0,0,1,.87,1.84,4,4,0,0,1,3.63-2.55,2.63,2.63,0,0,1,1.34.31,2.3,2.3,0,0,1,.89.86,4.46,4.46,0,0,1,.49,1.35,9.47,9.47,0,0,1,.15,1.76Z"/><path class="cls-5" d="M122.9,27.36a3.34,3.34,0,0,1-1.24-.23,3.07,3.07,0,0,1-1-.66,3,3,0,0,1-.89-2.19,2.44,2.44,0,0,1,.29-1.19,2.73,2.73,0,0,1,.81-.95,3.9,3.9,0,0,1,1.24-.62,5.66,5.66,0,0,1,1.59-.22,8.11,8.11,0,0,1,1.46.14,5.26,5.26,0,0,1,1.32.38v-.9a3,3,0,0,0-.7-2.08,2.52,2.52,0,0,0-2-.77,3.82,3.82,0,0,0-1.48.31,6.89,6.89,0,0,0-1.54.87l-.43-.85a6.1,6.1,0,0,1,3.54-1.3,3.69,3.69,0,0,1,2.78,1,4,4,0,0,1,1,2.89V25.5c0,.36.15.53.45.53v1.14a2.59,2.59,0,0,1-.47.06A1,1,0,0,1,127,27a.91.91,0,0,1-.28-.68l0-.78A4.24,4.24,0,0,1,125,26.89,4.91,4.91,0,0,1,122.9,27.36Zm.29-1A4,4,0,0,0,125,26a2.91,2.91,0,0,0,1.22-1,1.38,1.38,0,0,0,.24-.37,1.07,1.07,0,0,0,.08-.37V22.63a7.76,7.76,0,0,0-1.27-.38,6.72,6.72,0,0,0-1.35-.13,3.6,3.6,0,0,0-2.11.57,1.75,1.75,0,0,0-.81,1.5,2.27,2.27,0,0,0,.17.86,2.34,2.34,0,0,0,.47.69,2.12,2.12,0,0,0,.71.46A2.21,2.21,0,0,0,123.19,26.38Z"/><path class="cls-5" d="M131.15,22.2a5.64,5.64,0,0,1,.34-2,5,5,0,0,1,1-1.63,4.5,4.5,0,0,1,3.4-1.49,4.26,4.26,0,0,1,2.33.64,4,4,0,0,1,1.5,1.72l-1.2.4a2.9,2.9,0,0,0-1.11-1.19,3,3,0,0,0-1.57-.43,2.94,2.94,0,0,0-1.35.31,3.48,3.48,0,0,0-1.08.82,3.76,3.76,0,0,0-.72,1.25,4.48,4.48,0,0,0-.27,1.58,4.54,4.54,0,0,0,.27,1.57,4.22,4.22,0,0,0,.74,1.28,3.5,3.5,0,0,0,1.1.86,2.85,2.85,0,0,0,1.32.31,3.11,3.11,0,0,0,.9-.13,3.56,3.56,0,0,0,.82-.37,3.16,3.16,0,0,0,.65-.54,1.88,1.88,0,0,0,.38-.65l1.21.38a3.48,3.48,0,0,1-.58,1,3.93,3.93,0,0,1-.89.78,4.51,4.51,0,0,1-1.14.51,4.67,4.67,0,0,1-1.29.18A4.3,4.3,0,0,1,134,27a4.58,4.58,0,0,1-1.5-1.12,5.11,5.11,0,0,1-1-1.64A5.66,5.66,0,0,1,131.15,22.2Z"/><path class="cls-5" d="M147.1,27.36a4.21,4.21,0,0,1-1.88-.41,4.54,4.54,0,0,1-1.49-1.12,5.11,5.11,0,0,1-1-1.64,5.45,5.45,0,0,1-.36-2,5.35,5.35,0,0,1,.36-2,5,5,0,0,1,1-1.62,4.66,4.66,0,0,1,1.49-1.1,4.52,4.52,0,0,1,3.76,0,4.61,4.61,0,0,1,1.47,1.11,5.27,5.27,0,0,1,1,1.62,5.42,5.42,0,0,1,.34,1.94v.3a1.1,1.1,0,0,1,0,.21h-8a4.27,4.27,0,0,0,1.11,2.64,3.4,3.4,0,0,0,1.08.77,3,3,0,0,0,2.19.14,3.65,3.65,0,0,0,.83-.36,3.32,3.32,0,0,0,.69-.56,2.46,2.46,0,0,0,.47-.73l1.06.3a3.32,3.32,0,0,1-.61,1,4.32,4.32,0,0,1-.92.78,4.49,4.49,0,0,1-1.16.51A4.78,4.78,0,0,1,147.1,27.36Zm3.47-5.66a4.17,4.17,0,0,0-.35-1.45,3.8,3.8,0,0,0-.76-1.13,3.16,3.16,0,0,0-1.07-.74,3.11,3.11,0,0,0-1.29-.27,3.22,3.22,0,0,0-1.3.27,3.26,3.26,0,0,0-1.07.74,3.51,3.51,0,0,0-.74,1.14,4.22,4.22,0,0,0-.33,1.44Z"/><path class="cls-5" d="M158,27.36a2.61,2.61,0,0,1-2.29-1.07,5.6,5.6,0,0,1-.75-3.2V17.27h1.23v5.59q0,3.36,2.19,3.36a3,3,0,0,0,1.06-.19,3.24,3.24,0,0,0,1-.55,4.28,4.28,0,0,0,.79-.85,4.91,4.91,0,0,0,.57-1.12V17.27H163V25.5c0,.36.14.53.43.53v1.14a1.7,1.7,0,0,1-.35,0h-.19a1,1,0,0,1-.71-.32,1.19,1.19,0,0,1-.27-.82V24.93a4.47,4.47,0,0,1-1.67,1.8A4.29,4.29,0,0,1,158,27.36Z"/><path class="cls-5" d="M171.72,26.7l-.31.15c-.14.06-.3.13-.48.19a5.79,5.79,0,0,1-.61.17,3.38,3.38,0,0,1-.72.08,2.37,2.37,0,0,1-.76-.12,1.74,1.74,0,0,1-.64-.35,1.77,1.77,0,0,1-.43-.6,2,2,0,0,1-.16-.83V18.3h-1.3v-1h1.3V13.93h1.23v3.34H171v1h-2.16V25a1,1,0,0,0,.37.8,1.21,1.21,0,0,0,.76.26,2.19,2.19,0,0,0,.92-.18,3.55,3.55,0,0,0,.51-.26Z"/><path class="cls-5" d="M174.68,15.2V13.3h1.23v1.9Zm0,12v-9.9h1.23v9.9Z"/><path class="cls-5" d="M179.4,22.2a5.64,5.64,0,0,1,.34-2,5.2,5.2,0,0,1,1-1.63,4.74,4.74,0,0,1,1.49-1.09,4.64,4.64,0,0,1,1.92-.4,4.23,4.23,0,0,1,2.32.64,3.91,3.91,0,0,1,1.5,1.72l-1.19.4a2.9,2.9,0,0,0-1.11-1.19,3,3,0,0,0-1.58-.43,2.9,2.9,0,0,0-1.34.31,3.52,3.52,0,0,0-1.09.82,4.14,4.14,0,0,0-.72,1.25,4.72,4.72,0,0,0-.26,1.58,4.54,4.54,0,0,0,.27,1.57,4,4,0,0,0,.74,1.28,3.46,3.46,0,0,0,1.09.86,2.92,2.92,0,0,0,1.33.31,3,3,0,0,0,.89-.13,3.21,3.21,0,0,0,.82-.37,2.92,2.92,0,0,0,.65-.54,1.74,1.74,0,0,0,.38-.65l1.21.38a3.22,3.22,0,0,1-.57,1,4.21,4.21,0,0,1-.9.78,4.29,4.29,0,0,1-1.13.51,4.69,4.69,0,0,1-1.3.18,4.28,4.28,0,0,1-1.89-.41,4.47,4.47,0,0,1-1.5-1.12,5.11,5.11,0,0,1-1-1.64A5.45,5.45,0,0,1,179.4,22.2Z"/><path class="cls-5" d="M193.74,27.36a3.32,3.32,0,0,1-1.23-.23,3.07,3.07,0,0,1-1-.66,2.74,2.74,0,0,1-.66-1,3,3,0,0,1-.24-1.21,2.55,2.55,0,0,1,.29-1.19,2.73,2.73,0,0,1,.81-.95,4,4,0,0,1,1.25-.62,5.66,5.66,0,0,1,1.59-.22,8.19,8.19,0,0,1,1.46.14,5.52,5.52,0,0,1,1.32.38v-.9a3,3,0,0,0-.71-2.08,2.52,2.52,0,0,0-1.95-.77,3.86,3.86,0,0,0-1.48.31,7.06,7.06,0,0,0-1.53.87l-.43-.85a6.07,6.07,0,0,1,3.53-1.3,3.67,3.67,0,0,1,2.78,1,4,4,0,0,1,1,2.89V25.5c0,.36.15.53.46.53v1.14a2.82,2.82,0,0,1-.47.06,1,1,0,0,1-.74-.25,1,1,0,0,1-.28-.68l0-.78a4.31,4.31,0,0,1-1.63,1.37A5,5,0,0,1,193.74,27.36Zm.29-1a4,4,0,0,0,1.76-.39A2.85,2.85,0,0,0,197,25a1.42,1.42,0,0,0,.25-.37,1.07,1.07,0,0,0,.08-.37V22.63a7.87,7.87,0,0,0-1.28-.38,6.62,6.62,0,0,0-1.34-.13,3.58,3.58,0,0,0-2.11.57,1.75,1.75,0,0,0-.81,1.5,2.1,2.1,0,0,0,.17.86,2.17,2.17,0,0,0,.47.69,1.94,1.94,0,0,0,.71.46A2.2,2.2,0,0,0,194,26.38Z"/><path class="cls-5" d="M202.7,13.3h1.23V24.93a1.25,1.25,0,0,0,.28.87,1.11,1.11,0,0,0,.82.31,2.31,2.31,0,0,0,.47-.06,3.65,3.65,0,0,0,.5-.15l.22,1.05a3.85,3.85,0,0,1-.84.24,5.05,5.05,0,0,1-.86.1,1.77,1.77,0,0,1-1.34-.51,1.94,1.94,0,0,1-.48-1.41Z"/></g></g></svg>