<svg xmlns="http://www.w3.org/2000/svg" viewBox="0 0 437.74 341.66"><defs><style>.cls-1{fill:#0074c8;}.cls-2{fill:#fff;stroke:#fff;stroke-miterlimit:10;}.cls-3{fill:#fd8204;}</style></defs><title>Recurso 29</title><g id="Capa_2" data-name="Capa 2"><g id="Capa_1-2" data-name="Capa 1"><circle class="cls-1" cx="266.91" cy="170.83" r="170.83"/><g id="XU4u8X.tif"><path class="cls-2" d="M267,254.33H233.46c-10.31,0-15.76-5.52-15.76-16q0-22.17,0-44.34V173.86q0-9.12,0-18.26c0-15.06.07-30.62-.12-45.92-.06-4.81,1.42-8.87,4.27-11.73a15.65,15.65,0,0,1,11.61-4.33c15.2.1,30.66.08,45.62.07q10.66,0,21.32,0c10.33,0,15.79,5.52,15.79,15.94q0,64.37,0,128.74c0,10.43-5.46,16-15.78,16ZM233.34,102.24A7.54,7.54,0,0,0,228,104c-1.2,1.2-1.79,3.07-1.76,5.55.19,15.35.16,31,.12,46q0,9.12,0,18.24V194q0,22.17,0,44.34c0,5.69,1.6,7.34,7.14,7.34,22.08,0,44.61,0,67,0,5.48,0,7.16-1.72,7.16-7.35V109.62c0-5.61-1.68-7.32-7.17-7.32q-10.67,0-21.32,0c-15,0-30.45,0-45.68-.07Z"/></g><path class="cls-3" d="M291.25,145.62H242.56a5.22,5.22,0,0,0-5.21,5.21v18.81a5.21,5.21,0,0,0,5.21,5.21H257.9l8.91,8.91,8.92-8.91h15.52a5.21,5.21,0,0,0,5.21-5.21V150.83A5.21,5.21,0,0,0,291.25,145.62Z"/><path class="cls-2" d="M259.13,225.88a7.78,7.78,0,1,0,7.89-7.76A7.74,7.74,0,0,0,259.13,225.88Z"/><path class="cls-3" d="M67,151.35q14.26,0,21.2-7.42t6.93-20.86q0-11.25-7.27-18.67T67.55,97q-11,0-18.46,6.73a22,22,0,0,0-7.48,17.15H2.9l-.27-.82Q1.81,96.58,20.75,81.34t46.8-15.23q31,0,49.28,14.61t18.26,41.94a43.42,43.42,0,0,1-7.9,25.19,54,54,0,0,1-21.61,18.05q15.65,5.9,24.15,17.91t8.51,29q0,27.45-19.83,43.17T67.55,271.72q-27.31,0-47.76-14.82T0,215.31l.28-.82h39a25.18,25.18,0,0,0,7.89,18.87Q55.06,241,67.55,241q13.73,0,22.24-8.1a27,27,0,0,0,8.51-20.45q0-15.78-8-23.41T67,181.41H44.91V151.35Z"/></g></g></svg>