<svg xmlns="http://www.w3.org/2000/svg" viewBox="0 0 429.87 341.66"><defs><style>.cls-1{fill:#0074c8;}.cls-2{fill:#fd8204;}.cls-3{fill:#fff;}</style></defs><title>Recurso 28</title><g id="Capa_2" data-name="Capa 2"><g id="Capa_1-2" data-name="Capa 1"><circle class="cls-1" cx="259.04" cy="170.83" r="170.83"/><path class="cls-2" d="M205.32,186.37c.3.07.61.17.91.26a8.22,8.22,0,0,0,3.19.54,6.8,6.8,0,0,0,3-1.2c.22-.14.45-.28.67-.4,7-3.74,16.45-8.21,26.8-9.54,4.89-.63,10.45-2.31,11.39-9.4H267c0,.18.06.37.1.57,1.11,6.36,1.8,7.05,8.2,8.13l.09,0a98.13,98.13,0,0,1,29.94,10.41l.57.31a8.46,8.46,0,0,0,3.47,1.31h.31a5.58,5.58,0,0,0,4.19-2.07c1.07-1.46.49-3.85-.35-5a9.09,9.09,0,0,0-3.2-2.5,102.94,102.94,0,0,0-32.12-11.54l-.41-.06c-1.7-.28-1.7-.32-1.79-1.16V165c-.25-2.4-.25-2.88,1.19-3.73,8.36-5,13-11.43,14.27-19.71.05-.17.31-.61,1.52-1.64a16.68,16.68,0,0,0,4.82-19.35,8.19,8.19,0,0,1-.44-4.4,38.86,38.86,0,0,0-38.5-47.44,39.18,39.18,0,0,0-38,48,6,6,0,0,1-.37,3.32,16.75,16.75,0,0,0,4.93,20.29,3.85,3.85,0,0,1,1.2,1.39c1.56,8.38,6.41,15,14.42,19.64,1.16.68,1.17,1,1,2.84,0,.28-.05.57-.07.86,0,.82-.05.88-2.06,1.23a101.31,101.31,0,0,0-32.14,11.48,4.08,4.08,0,0,1-.42.19,4.1,4.1,0,0,0-2.22,1.78,15.13,15.13,0,0,0-1.06,2.94c-.09.34-.19.68-.29,1a2.11,2.11,0,0,0,1.52,2.7Zm82.95-71.68a36.42,36.42,0,0,1-17-10.62,10.19,10.19,0,0,0-3.45-2.2c-.45-.21-.88-.41-1.25-.62a2.12,2.12,0,0,0-1-.27,2,2,0,0,0-.9.21,2.15,2.15,0,0,0-1.19,1.54c-.08.48-.21,1-.34,1.52a12.63,12.63,0,0,0-.54,4.45,14.3,14.3,0,0,0,.82,3.26,34.83,34.83,0,0,1-6.27-2.75,50.4,50.4,0,0,1-9.42-7.64c-1.13-1.15-2.89-2.67-5.13-2.59a5.8,5.8,0,0,0-4.18,2.31c-2.76,3.22-5.37,6.62-7.89,9.91l-.5.66c-2.42-11.47,3.18-22,10.53-27.76a30.75,30.75,0,0,1,36.86-.52C286.79,90.61,291.52,104.45,288.27,114.69Zm-51.95,27.75c-.86-4.18-2.25-7.56-6.21-10.42a4.42,4.42,0,0,1-1.16-1.7l.25.15a2.12,2.12,0,0,0,3-.93c.19-.41.4-.81.62-1.21a13.59,13.59,0,0,0,1.44-3.49,27,27,0,0,1,7.86-14.38,45.12,45.12,0,0,0,17.78,10.9,51.49,51.49,0,0,0,8.23,1.89c2.18.33,4.64.53,6.13-1.11a4,4,0,0,0,1-2.33c2.63,1.19,5.12,2.31,7.69,3.44a21.78,21.78,0,0,0,3.37,1c2.23.55,3.76,1.71,4.12,3.08.31,1.2-.31,2.6-1.75,3.93-3.73,3.48-5.13,7.32-6.62,11.38l-.32.89c-2,5.53-6.85,10.08-13.2,12.48-6.88,2.6-14.5,2.26-20.37-.91C242.78,152.23,237.61,148.67,236.32,142.44Z"/><path class="cls-3" d="M342.17,264.29a21.91,21.91,0,0,0-4.18-.16c-.48,0-.94,0-1.45,0-1,0-2,0-2.5-.06-.05-.52-.05-1.45-.05-2.35V204.43c0-10.39-4.2-14.63-14.4-14.63-40.53,0-80.36,0-121,0a37.1,37.1,0,0,0-4.86.39,10.34,10.34,0,0,0-9,8.35,24.4,24.4,0,0,0-.55,5.75c0,18.92-.07,38.47,0,58a4.58,4.58,0,0,1-.15,1.47,3,3,0,0,1-1.11,0,26.84,26.84,0,0,0-7.26.33,5,5,0,0,0-3.61,4.58c.18,2.35,3.13,3.74,3.47,3.89a4.58,4.58,0,0,0,1.91.36c.37,0,.73,0,1.05-.05s.48,0,.7,0h92.67q33.27,0,66.53,0h.53a10.83,10.83,0,0,0,4.07-.51,5,5,0,0,0,3-4.31C345.92,266.12,343.68,264.53,342.17,264.29Zm-17.43-16.76v15.88H193.18V239.57q0-17.72,0-35.42c0-4.79.39-5.18,5.15-5.18H319.58c4.86,0,5.15.29,5.15,5.1Q324.75,225.81,324.74,247.53Z"/><path class="cls-3" d="M258.81,223.55a11.81,11.81,0,0,0,.2,23.61,12,12,0,0,0,8.6-3.66,11.47,11.47,0,0,0,3.27-8.46A12,12,0,0,0,258.81,223.55Z"/><path class="cls-2" d="M138,268.84H3.87V242.62l61.9-70Q79.65,156.28,85.47,145t5.83-20.79q0-12.36-6.17-19.77T66.6,97q-13,0-20.18,9.47t-7.14,24H.3L0,129.66Q-.66,103,17.6,84.57t49-18.46q30.74,0,47.76,15.71t17,42.21a59.4,59.4,0,0,1-9.54,32.81q-9.54,14.82-32.87,41L56,237.41l.27.68H138Z"/></g></g></svg>