<svg xmlns="http://www.w3.org/2000/svg" viewBox="0 0 390.59 341.66"><defs><style>.cls-1{fill:#0074c8;}.cls-2{fill:#fff;}.cls-3{fill:#fd8204;}</style></defs><title>Recurso 27</title><g id="Capa_2" data-name="Capa 2"><g id="Capa_1-2" data-name="Capa 1"><circle class="cls-1" cx="219.76" cy="170.83" r="170.83"/><path class="cls-2" d="M295.7,107.17l-151-1.12a19.79,19.79,0,0,0-19.92,19.62l-.61,82.38A19.79,19.79,0,0,0,143.81,228l44.23.33-.13,17.44a10.49,10.49,0,0,0,10.4,10.56l41.56.31a10.49,10.49,0,0,0,10.57-10.4l.13-17.44,44.22.33a19.79,19.79,0,0,0,19.92-19.62l.61-82.38A19.79,19.79,0,0,0,295.7,107.17Zm-54.77,139a1,1,0,0,1-1,1l-41.56-.31a1,1,0,0,1-1-1l.13-17.44,43.51.33Zm63.64-36.74a9.63,9.63,0,0,1-9.7,9.55l-151-1.12a9.64,9.64,0,0,1-9.55-9.7l.62-82.37a9.63,9.63,0,0,1,9.69-9.56l151,1.13a9.64,9.64,0,0,1,9.55,9.69Z"/><path class="cls-3" d="M250.36,137.07a32,32,0,0,0-20.42,7.14l-45-.34a2.86,2.86,0,1,0,0,5.71l39.56.29a32.25,32.25,0,0,0-4.68,8.74,3,3,0,0,0-.74-.11l-34.21-.26a2.86,2.86,0,0,0,0,5.71l33.57.25A32.81,32.81,0,0,0,218,169a33.79,33.79,0,0,0,.2,3.91l-33.45-.25a2.85,2.85,0,1,0,0,5.7l34.68.26a31.75,31.75,0,0,0,3.9,8.27l-38.64-.29a2.86,2.86,0,0,0,0,5.71l34.74.26-13.87,13.66a5,5,0,0,0-.05,7.08,5,5,0,0,0,7.08.06L231,195.09a32.16,32.16,0,1,0,19.35-58Zm-.71,54.75A22.29,22.29,0,1,1,272.1,169.7,22.3,22.3,0,0,1,249.65,191.82Z"/><path class="cls-3" d="M81.26,268.84H41.32v-165H0V73.24l81.26-7.13Z"/></g></g></svg>