<svg xmlns="http://www.w3.org/2000/svg" viewBox="0 0 202.14 232.14"><defs><style>.cls-1,.cls-2{fill:#0075c9;}.cls-2{fill-rule:evenodd;}</style></defs><title>Recurso 1</title><g id="Capa_2" data-name="Capa 2"><g id="Capa_1-2" data-name="Capa 1"><path class="cls-1" d="M1.47,230.3a58.41,58.41,0,0,0,12.83,1.84c11.91,0,16.25-7.35,16.25-14.51,0-13.88-16.25-17.54-16.25-25.34,0-2.79,3.58-3.84,5.64-3.84a19.62,19.62,0,0,1,9.39,2.71l-1.48-12.58a48,48,0,0,0-11.33-1.51C4.73,177.07.81,184.62.81,190.84c0,13.54,16.29,19,16.29,25.73,0,3.75-3.76,4.16-6,4.16A22.54,22.54,0,0,1,0,217.15Z"/><path class="cls-2" d="M43.63,231.17l5-15.3H64.45l4.6,15.3h14.3c-6-17.61-12.48-35.71-17.81-53.15H49.39c-6.66,17.86-13.18,35.85-20.5,53.15Zm8.27-26.45,5.24-15.22h.13l4.63,15.22Z"/><path class="cls-1" d="M105.46,231.17c4-11.07,15.14-42.32,19.39-53.15H110.91L98.27,217.78,87.17,178H73.3C78.36,194,89,226.48,90.08,231.17Z"/><path class="cls-2" d="M127.31,231.17l5.07-15.3h15.76l4.62,15.3h14.29c-6-17.61-12.5-35.71-17.81-53.15H133.09c-6.68,17.86-13.2,35.85-20.52,53.15Zm8.29-26.45,5.24-15.22H141l4.63,15.22Z"/><polygon class="cls-1" points="168.97 231.17 202.14 231.17 202.14 219.76 182.43 219.76 182.43 178.02 168.97 178.02 168.97 231.17"/><path class="cls-1" d="M150.74,122.87H34.2V0H48.66V108.48H150.74a2.72,2.72,0,0,0,2.87-2.67,2.49,2.49,0,0,0-2.75-2.5l-45.43.1a51.16,51.16,0,1,1,0-102.32h86.4V15.48h-86.4a36.77,36.77,0,1,0,0,73.54l45.43-.1a16.87,16.87,0,0,1,17.22,16.89A17.22,17.22,0,0,1,150.74,122.87Z"/><path class="cls-1" d="M151.64,157.41H.12V0H14.58V143H151.64c20.16,0,35.94-16,35.94-36.39a36.86,36.86,0,0,0-37-36.65H105.28a17.23,17.23,0,1,1,0-34.45h86.55v14.4H105.28a2.82,2.82,0,0,0-2.87,2.83,2.86,2.86,0,0,0,2.87,2.83h45.31c28.38,0,51.46,22.9,51.46,51C202.05,135.1,179.91,157.41,151.64,157.41Z"/></g></g></svg>