<svg xmlns="http://www.w3.org/2000/svg" viewBox="0 0 34 39.24"><defs><style>.cls-1,.cls-2{fill:#295391;}.cls-2{fill-rule:evenodd;}.cls-3{fill:#2a94d2;}</style></defs><title>Recurso 3</title><g id="Capa_2" data-name="Capa 2"><g id="Capa_1-2" data-name="Capa 1"><path class="cls-1" d="M.25,38.93a9.79,9.79,0,0,0,2.15.31,2.4,2.4,0,0,0,2.74-2.45c0-2.35-2.74-3-2.74-4.29,0-.47.61-.64,1-.64a3.17,3.17,0,0,1,1.58.46l-.24-2.13a8.07,8.07,0,0,0-1.91-.26A2.33,2.33,0,0,0,.14,32.26c0,2.29,2.74,3.21,2.74,4.35,0,.63-.64.7-1,.7A3.86,3.86,0,0,1,0,36.71Z"/><path class="cls-2" d="M7.34,39.08l.85-2.59h2.65l.77,2.59H14c-1-3-2.1-6-3-9H8.31c-1.12,3-2.22,6-3.45,9ZM8.73,34.6,9.61,32h0l.78,2.57Z"/><path class="cls-1" d="M17.74,39.08c.67-1.88,2.54-7.15,3.26-9H18.65l-2.12,6.71L14.66,30.1H12.33c.85,2.69,2.64,8.18,2.82,9Z"/><path class="cls-2" d="M21.41,39.08l.86-2.59h2.65l.77,2.59H28.1c-1-3-2.11-6-3-9H22.39c-1.13,3-2.22,6-3.45,9Zm1.4-4.48L23.69,32h0l.78,2.57Z"/><polygon class="cls-1" points="28.42 39.08 34 39.08 34 37.15 30.68 37.15 30.68 30.09 28.42 30.09 28.42 39.08"/><path class="cls-3" d="M25.35,20.77H5.76V0H8.18V18.35H25.35a.47.47,0,0,0,.49-.46.42.42,0,0,0-.46-.43l-7.65,0a8.65,8.65,0,0,1,0-17.29H32.26V2.61H17.73a6.23,6.23,0,0,0,0,12.45l7.64,0a2.84,2.84,0,0,1,2.89,2.85A2.89,2.89,0,0,1,25.35,20.77Z"/><path class="cls-3" d="M25.51,26.61H0V0H2.45V24.19H25.51a6,6,0,0,0,6-6.16,6.22,6.22,0,0,0-6.22-6.2H17.71a2.91,2.91,0,1,1,0-5.81H32.27V8.44H17.71a.48.48,0,0,0-.49.48.49.49,0,0,0,.49.49h7.62A8.64,8.64,0,0,1,34,18,8.43,8.43,0,0,1,25.51,26.61Z"/></g></g></svg>