<svg xmlns="http://www.w3.org/2000/svg" viewBox="0 0 100.19 100"><defs><style>.cls-1,.cls-3{fill:none;}.cls-1{stroke:#fff;stroke-miterlimit:10;stroke-width:4px;}.cls-2{fill:#f39100;}</style></defs><title>Recurso 38</title><g id="Capa_2" data-name="Capa 2"><g id="Capa_1-2" data-name="Capa 1"><path class="cls-1" d="M71.53,17.68A4.53,4.53,0,0,1,67,13.1a4.59,4.59,0,1,1,4.54,4.58Z"/><path class="cls-2" d="M0,50.34C.13,64.8.34,81,.39,95.47c0,2.34.65,3.36,2.07,3.31s2-1,2-3.38c0-14.51-.31-30.77-.34-45.28a18.59,18.59,0,0,1,.38-2.76L5.18,42l-.66.3A8.42,8.42,0,0,0,0,50.34Z"/><g id="_6oJi8x.tif" data-name="6oJi8x.tif"><path class="cls-1" d="M54.31,35.59c-1.54-7-5.26-13.65-14-14.22a9.08,9.08,0,0,1-9,6.26c-7.29,0-8.3-5.7-9-5.5a20.13,20.13,0,0,0-11.57,8C7.35,34.71,6.3,46.53,6.3,46.53s0,4.92,3.64,5.16,4-2.78,4-2.78.23-8.61,1.87-11.67c1.09-2.09,3.41-5.29,5.36-4.76s.25,12.66,0,19.57c-.14,3.86-1.81,34.42.63,43.23.51,1.84,3.91,1.19,4.54.85,2-1.06,2.67-2.82,2.76-5q.54-13.68,1.24-27.37c.13-2.34.59-7.22,2.67-7.26,3.46-.06,5.94,40,8.65,40.24s5.2,1.23,5.38-2.4c.36-7.22-.55-22.6-1-28.11-1.55-10.11-2.83-34.5-2-34.68,2.78-.64,3.41,16.26,4.08,21.35"/><path class="cls-1" d="M31.23,27.6a9.42,9.42,0,0,1-9.45-9.53,9.56,9.56,0,1,1,9.45,9.53Z"/></g><path class="cls-2" d="M20.43,48.6a9,9,0,0,0-3.6-6.26,2.53,2.53,0,0,1-.43-.48L16,46.68c.06.28-.2,1.84-.14,2.41.15,1.51.85,2.47,2.46,2.41C19.73,51.44,20.56,50.29,20.43,48.6Z"/><path class="cls-1" d="M71.49,34.92A8.55,8.55,0,1,0,63,26.39,8.43,8.43,0,0,0,71.49,34.92Z"/><path class="cls-1" d="M48.08,52.89a3.62,3.62,0,0,0,4.78,3A3.52,3.52,0,0,0,55,54.33l.34-2,1.43-5.65a11.37,11.37,0,0,1,.95-3.14c1-1.87,3.05-4.73,4.79-4.26s.22,11.33,0,17.51c0,0-2.75,6.54-4.2,19.22-.15,1.31,1.34,3,3.59,4.56.05,6.18.35,11.92,1.17,14.89.46,1.65,3.51,1.07,4.06.76a4.82,4.82,0,0,0,2.47-4.48q.15-3.76.32-7.53a16,16,0,0,0,3.87.54,17,17,0,0,0,4.1-.57c1,7,2,12.51,3,12.58,2.36.19,4.64,1.1,4.8-2.14s0-8.63-.2-13.64c2.39-1.47,4-3.09,3.78-4.27a83,83,0,0,0-5.75-19.23c-.7-9.16-1-18.93-.57-19,2.49-.58,3,14.54,3.65,19.09a3.23,3.23,0,0,0,4.27,2.73c2.19-.74,2.4-2.14,2.14-4-.06-3.51,1.28-27.59-13.35-26.95a8.12,8.12,0,0,1-8.06,5.59c-6.53,0-7.43-5.09-8.08-4.92a18.62,18.62,0,0,0-9.17,5.57S50.73,39.62,48.08,52.89Z"/><rect class="cls-3" x="0.19" width="100" height="100"/><path class="cls-2" d="M100,61.38c-.14,15.5-.36,18.4-.42,33.9,0,2.52-.69,3.61-2.22,3.55s-2.12-1-2.11-3.62c.06-15.56.34-18.51.36-34.07a19.86,19.86,0,0,0-.4-3l-.06-5.37A9,9,0,0,1,100,61.38Z"/><path class="cls-2" d="M79.8,59.4a9,9,0,0,1,3.59-6.24,3,3,0,0,0,.43-.48l.44,4.8c-.07.28.2,1.83.14,2.4-.16,1.51-.86,2.46-2.46,2.4C80.5,62.22,79.67,61.08,79.8,59.4Z"/></g></g></svg>