<svg xmlns="http://www.w3.org/2000/svg" viewBox="0 0 100 100"><defs><style>.cls-1{fill:#f39100;}.cls-2{fill:none;}</style></defs><title>Recurso 23</title><g id="Capa_2" data-name="Capa 2"><g id="Capa_1-2" data-name="Capa 1"><path d="M89.63,37.58C87.92,26.69,78,17.76,67.06,17.26a35.67,35.67,0,0,0-16.48,3.45,10.54,10.54,0,0,1-6.14.73c-4.41-.68-7.15-2.89-8.17-6.57a70.75,70.75,0,0,1-1.9-9.26,5.67,5.67,0,0,0-2.77-4.4A8.64,8.64,0,0,0,24.7.35a8.45,8.45,0,0,0-5.27,4.2,7.82,7.82,0,0,0-.85,3.77c.09,1.88.38,3.78.65,5.61l.22,1.43c1.24,8.58,4.83,14.61,11,18.43a41.68,41.68,0,0,0,5.45,2.68c.72.31,1.44.62,2.15,1v1.7c0,1.61,0,3.24,0,4.87,0,.72.06,1.44.11,2.16a27,27,0,0,1,.08,3.36,8.15,8.15,0,0,1-5.47,7.61A30.35,30.35,0,0,0,28,59.75c-.72.46-1.43.91-2.17,1.34a2.84,2.84,0,0,1-.94.42,15.2,15.2,0,0,0-12.44,8.83C9.15,77,7.64,84.47,7.72,93.83a3.4,3.4,0,0,0,.44,1.48,9.16,9.16,0,0,0,8,4.69,8.51,8.51,0,0,0,1.33-.1,7.4,7.4,0,0,0,6.56-7.49,43.56,43.56,0,0,1,2.49-13.5,6.31,6.31,0,0,1,.92-1.51l.27-.36a26.16,26.16,0,0,0,9,4.65c7.8,2.28,16,2,25.94-.82C84.94,74.48,91.83,51.71,89.63,37.58ZM43.4,49.07a26,26,0,0,0-.34-6,9,9,0,0,1,1.81-7.45,8.15,8.15,0,0,0,.61-.92l.14-.23a1,1,0,0,0,.13-.4l.14-.66-.53-.1-2-.36c-1.42-.25-2.76-.48-4.09-.83C31.43,30,26.63,25,25,17A70.62,70.62,0,0,1,24,8.35a3,3,0,0,1,1.3-2.67,3.22,3.22,0,0,1,3.13-.38,1.88,1.88,0,0,1,.8,1.13c.27,1.17.49,2.38.7,3.56a51.81,51.81,0,0,0,1.33,5.94c2.1,6.7,6.84,10.31,14.09,10.72a13.71,13.71,0,0,0,6.81-1.06,35.51,35.51,0,0,1,12-3.2C76,21.28,83.31,31.06,84.51,38c1.24,7.14,0,14.29-3.8,21.86C76,69.29,68.09,74.92,56.59,77.08c-6.69,1.25-12.13,1.26-17.14,0a22.1,22.1,0,0,1-9.61-4.93,2.84,2.84,0,0,0-2.43-.55,8.22,8.22,0,0,0-5.6,5.25,51.37,51.37,0,0,0-2.88,15.4A2.54,2.54,0,0,1,16.26,95a3.78,3.78,0,0,1-2.69-1,2.34,2.34,0,0,1-.75-1.68,45.27,45.27,0,0,1,4-19.18c2.05-4.37,5.22-6.49,9.67-6.49h.1A2.5,2.5,0,0,0,28,66l.21-.14c.67-.43,1.34-.92,2-1.39A17.89,17.89,0,0,1,34.27,62C40.06,59.82,43.05,55.59,43.4,49.07Z"/><path class="cls-1" d="M46.37,73q1.05.06,2.07.06c13,0,25-7.66,27.4-17.8a2.75,2.75,0,0,0-.7-2.24c-1-1.2-3.19-1.91-5.74-1.91H53.82a6.25,6.25,0,0,0-4.13,1,6.05,6.05,0,0,0-1.64,2,9.37,9.37,0,0,0-.81,2.32c-.56,2.2-1.15,4.48-5.7,6.19-.22.07-5.41,1.82-5.42,5C36.11,70,39.28,72.54,46.37,73Z"/><rect class="cls-2" width="100" height="100"/></g></g></svg>